<?xml version="1.0" encoding="utf-8"?>
<!-- Generator: Adobe Illustrator 16.0.0, SVG Export Plug-In . SVG Version: 6.00 Build 0)  -->
<!DOCTYPE svg PUBLIC "-//W3C//DTD SVG 1.0//EN" "http://www.w3.org/TR/2001/REC-SVG-20010904/DTD/svg10.dtd">
<svg version="1.0" xmlns="http://www.w3.org/2000/svg" xmlns:xlink="http://www.w3.org/1999/xlink" x="0px" y="0px" width="800px"
	 height="800px" viewBox="0 0 800 800" enable-background="new 0 0 800 800" xml:space="preserve">
<g id="Capa_1">
	<rect x="-661.135" y="144.604" fill="#ECF0F1" width="411.914" height="187.302"/>
	<g>
		<path fill="#2C3E50" d="M-558.462,222.467h23.022v6.004h-16.37v6.521h14.427v6.004h-14.427v11.706h-6.652V222.467z"/>
		<path fill="#2C3E50" d="M-518.379,253.22c-2.332,0-4.478-0.41-6.436-1.231c-1.959-0.821-3.65-1.929-5.075-3.326
			c-1.426-1.396-2.534-3.038-3.326-4.924c-0.792-1.886-1.188-3.909-1.188-6.068v-0.086c0-2.16,0.403-4.182,1.209-6.069
			c0.806-1.886,1.922-3.542,3.348-4.967c1.425-1.425,3.125-2.549,5.097-3.369c1.972-0.821,4.125-1.231,6.457-1.231
			c2.333,0,4.477,0.41,6.436,1.231c1.958,0.82,3.65,1.929,5.075,3.326c1.426,1.397,2.533,3.038,3.326,4.924
			c0.792,1.887,1.188,3.909,1.188,6.069v0.086c0,2.16-0.403,4.183-1.209,6.068c-0.806,1.887-1.922,3.542-3.347,4.968
			c-1.425,1.425-3.125,2.548-5.097,3.369C-513.894,252.811-516.046,253.22-518.379,253.22z M-518.292,247.087
			c1.324,0,2.548-0.245,3.672-0.734c1.123-0.489,2.08-1.166,2.872-2.03c0.792-0.864,1.41-1.864,1.857-3.001
			c0.446-1.137,0.669-2.354,0.669-3.65v-0.086c0-1.296-0.223-2.52-0.669-3.672c-0.447-1.151-1.079-2.159-1.9-3.023
			c-0.82-0.863-1.792-1.547-2.915-2.051c-1.124-0.504-2.348-0.756-3.672-0.756c-1.354,0-2.584,0.245-3.693,0.734
			c-1.108,0.489-2.059,1.166-2.851,2.029c-0.792,0.865-1.411,1.865-1.857,3.002c-0.446,1.138-0.669,2.354-0.669,3.65v0.086
			c0,1.296,0.223,2.52,0.669,3.671c0.446,1.152,1.081,2.16,1.901,3.024c0.821,0.864,1.785,1.548,2.894,2.052
			C-520.877,246.835-519.646,247.087-518.292,247.087z"/>
		<path fill="#2C3E50" d="M-484.603,253.22c-2.332,0-4.478-0.41-6.436-1.231c-1.958-0.821-3.649-1.929-5.075-3.326
			c-1.425-1.396-2.534-3.038-3.326-4.924c-0.792-1.886-1.188-3.909-1.188-6.068v-0.086c0-2.16,0.403-4.182,1.209-6.069
			c0.806-1.886,1.922-3.542,3.347-4.967c1.426-1.425,3.125-2.549,5.097-3.369c1.973-0.821,4.125-1.231,6.457-1.231
			c2.333,0,4.478,0.41,6.437,1.231c1.958,0.82,3.649,1.929,5.075,3.326c1.425,1.397,2.533,3.038,3.326,4.924
			c0.792,1.887,1.188,3.909,1.188,6.069v0.086c0,2.16-0.404,4.183-1.21,6.068c-0.806,1.887-1.922,3.542-3.347,4.968
			c-1.426,1.425-3.125,2.548-5.097,3.369C-480.117,252.811-482.27,253.22-484.603,253.22z M-484.516,247.087
			c1.324,0,2.548-0.245,3.672-0.734c1.123-0.489,2.08-1.166,2.872-2.03c0.792-0.864,1.411-1.864,1.857-3.001
			c0.447-1.137,0.67-2.354,0.67-3.65v-0.086c0-1.296-0.223-2.52-0.67-3.672c-0.446-1.151-1.079-2.159-1.9-3.023
			c-0.82-0.863-1.792-1.547-2.915-2.051c-1.124-0.504-2.348-0.756-3.672-0.756c-1.354,0-2.584,0.245-3.692,0.734
			c-1.109,0.489-2.059,1.166-2.851,2.029c-0.792,0.865-1.411,1.865-1.857,3.002c-0.447,1.138-0.669,2.354-0.669,3.65v0.086
			c0,1.296,0.223,2.52,0.669,3.671c0.446,1.152,1.08,2.16,1.901,3.024c0.82,0.864,1.785,1.548,2.894,2.052
			C-487.101,246.835-485.87,247.087-484.516,247.087z"/>
		<path fill="#2C3E50" d="M-458.471,228.6h-9.2v-6.133h25.052v6.133h-9.2v24.102h-6.652V228.6z"/>
		<path fill="#2C3E50" d="M-442.792,222.467h7.127l6.263,20.473l6.781-20.56h5.702l6.782,20.56l6.263-20.473h6.954l-10.323,30.451
			h-5.788l-6.825-19.783l-6.824,19.783h-5.788L-442.792,222.467z"/>
		<path fill="#2C3E50" d="M-394.935,222.467h22.763v5.918h-16.198v6.133h14.253v5.917h-14.253v6.349h16.414v5.918h-22.979V222.467z"
			/>
		<path fill="#2C3E50" d="M-358.565,222.251h6.133l12.958,30.451h-6.954l-2.764-6.782h-12.785l-2.765,6.782h-6.781L-358.565,222.251
			z M-351.568,240.046l-4.017-9.805l-4.017,9.805H-351.568z"/>
		<path fill="#2C3E50" d="M-337.747,222.467h13.822c3.829,0,6.766,1.022,8.812,3.067c1.728,1.728,2.591,4.032,2.591,6.911v0.086
			c0,2.448-0.598,4.443-1.792,5.983c-1.195,1.541-2.758,2.67-4.687,3.391l7.386,10.798h-7.775l-6.479-9.675h-0.086h-5.14v9.675
			h-6.652V222.467z M-324.357,237.153c1.642,0,2.901-0.389,3.78-1.167s1.317-1.814,1.317-3.11v-0.086c0-1.439-0.461-2.52-1.382-3.24
			c-0.922-0.719-2.203-1.079-3.845-1.079h-6.608v8.682H-324.357z"/>
	</g>
	<g>
		<path fill="#E74C3C" d="M-602.798,222.767h6.604v11.879h13.299v-2.973h5.417v12.207h-5.417v-3.144h-13.299v12.051h-6.604V222.767z
			"/>
	</g>
	<g>
		<path fill="#E74C3C" d="M-566.201,231.795c-0.772-1.815-1.866-3.395-3.28-4.739c-1.416-1.343-3.103-2.394-5.061-3.152
			c-1.959-0.757-4.11-1.136-6.454-1.136h-11.708v9.542h6.604v-3.581h5.104c1.343,0,2.572,0.222,3.687,0.665
			c1.116,0.443,2.065,1.065,2.853,1.866c0.786,0.8,1.4,1.758,1.844,2.873c0.443,1.115,0.665,2.331,0.665,3.646v0.085
			c0,1.344-0.222,2.56-0.665,3.646c-0.443,1.087-1.058,2.031-1.844,2.831c-0.787,0.801-1.737,1.415-2.853,1.844
			c-1.115,0.428-2.344,0.643-3.687,0.643h-5.104v-3.655h-6.604v9.616h11.708c2.344,0,4.495-0.386,6.454-1.158
			c1.958-0.771,3.645-1.829,5.061-3.173c1.415-1.344,2.508-2.93,3.28-4.761c0.772-1.829,1.158-3.802,1.158-5.917v-0.086
			C-565.043,235.575-565.429,233.611-566.201,231.795z"/>
	</g>
	<path fill="#2C3E50" d="M-291.024,270.275h-329.643v-66.041h329.643V270.275z M-611.712,261.32h311.733v-48.131h-311.733V261.32z"
		/>
	<rect x="-661.802" y="331.651" fill="#2C3E50" width="411.914" height="187.302"/>
	<g>
		<path fill="#ECF0F1" d="M-558.462,410.515h23.022v6.004h-16.37v6.521h14.427v6.003h-14.427v11.707h-6.652V410.515z"/>
		<path fill="#ECF0F1" d="M-518.379,441.267c-2.332,0-4.478-0.409-6.436-1.23c-1.959-0.82-3.65-1.929-5.075-3.326
			c-1.426-1.396-2.534-3.036-3.326-4.923c-0.792-1.887-1.188-3.909-1.188-6.068v-0.087c0-2.16,0.403-4.182,1.209-6.068
			c0.806-1.886,1.922-3.542,3.348-4.968c1.425-1.425,3.125-2.548,5.097-3.369c1.972-0.82,4.125-1.23,6.457-1.23
			c2.333,0,4.477,0.41,6.436,1.23c1.958,0.821,3.65,1.93,5.075,3.326c1.426,1.397,2.533,3.038,3.326,4.924
			c0.792,1.887,1.188,3.909,1.188,6.069v0.086c0,2.158-0.403,4.184-1.209,6.068c-0.806,1.886-1.922,3.542-3.347,4.967
			c-1.425,1.426-3.125,2.549-5.097,3.369C-513.894,440.857-516.046,441.267-518.379,441.267z M-518.292,435.135
			c1.324,0,2.548-0.245,3.672-0.735c1.123-0.49,2.08-1.165,2.872-2.03c0.792-0.863,1.41-1.863,1.857-3.001
			c0.446-1.139,0.669-2.354,0.669-3.649v-0.087c0-1.295-0.223-2.52-0.669-3.672c-0.447-1.15-1.079-2.16-1.9-3.023
			c-0.82-0.863-1.792-1.548-2.915-2.051c-1.124-0.505-2.348-0.756-3.672-0.756c-1.354,0-2.584,0.245-3.693,0.734
			c-1.108,0.489-2.059,1.165-2.851,2.028c-0.792,0.865-1.411,1.865-1.857,3.003c-0.446,1.139-0.669,2.354-0.669,3.65v0.086
			c0,1.295,0.223,2.52,0.669,3.672c0.446,1.151,1.081,2.16,1.901,3.023c0.821,0.864,1.785,1.548,2.894,2.051
			C-520.877,434.883-519.646,435.135-518.292,435.135z"/>
		<path fill="#ECF0F1" d="M-484.603,441.267c-2.332,0-4.478-0.409-6.436-1.23c-1.958-0.82-3.649-1.929-5.075-3.326
			c-1.425-1.396-2.534-3.036-3.326-4.923c-0.792-1.887-1.188-3.909-1.188-6.068v-0.087c0-2.16,0.403-4.182,1.209-6.068
			c0.806-1.886,1.922-3.542,3.347-4.968c1.426-1.425,3.125-2.548,5.097-3.369c1.973-0.82,4.125-1.23,6.457-1.23
			c2.333,0,4.478,0.41,6.437,1.23c1.958,0.821,3.649,1.93,5.075,3.326c1.425,1.397,2.533,3.038,3.326,4.924
			c0.792,1.887,1.188,3.909,1.188,6.069v0.086c0,2.158-0.404,4.184-1.21,6.068c-0.806,1.886-1.922,3.542-3.347,4.967
			c-1.426,1.426-3.125,2.549-5.097,3.369C-480.117,440.857-482.27,441.267-484.603,441.267z M-484.516,435.135
			c1.324,0,2.548-0.245,3.672-0.735c1.123-0.49,2.08-1.165,2.872-2.03c0.792-0.863,1.411-1.863,1.857-3.001
			c0.447-1.139,0.67-2.354,0.67-3.649v-0.087c0-1.295-0.223-2.52-0.67-3.672c-0.446-1.15-1.079-2.16-1.9-3.023
			c-0.82-0.863-1.792-1.548-2.915-2.051c-1.124-0.505-2.348-0.756-3.672-0.756c-1.354,0-2.584,0.245-3.692,0.734
			c-1.109,0.489-2.059,1.165-2.851,2.028c-0.792,0.865-1.411,1.865-1.857,3.003c-0.447,1.139-0.669,2.354-0.669,3.65v0.086
			c0,1.295,0.223,2.52,0.669,3.672c0.446,1.151,1.08,2.16,1.901,3.023c0.82,0.864,1.785,1.548,2.894,2.051
			C-487.101,434.883-485.87,435.135-484.516,435.135z"/>
		<path fill="#ECF0F1" d="M-458.471,416.647h-9.2v-6.133h25.052v6.133h-9.2v24.103h-6.652V416.647z"/>
		<path fill="#ECF0F1" d="M-442.792,410.515h7.127l6.263,20.473l6.781-20.56h5.702l6.782,20.56l6.263-20.473h6.954l-10.323,30.45
			h-5.788l-6.825-19.782l-6.824,19.782h-5.788L-442.792,410.515z"/>
		<path fill="#ECF0F1" d="M-394.935,410.515h22.763v5.917h-16.198v6.134h14.253v5.918h-14.253v6.349h16.414v5.918h-22.979V410.515z"
			/>
		<path fill="#ECF0F1" d="M-358.565,410.299h6.133l12.958,30.451h-6.954l-2.764-6.782h-12.785l-2.765,6.782h-6.781L-358.565,410.299
			z M-351.568,428.095l-4.017-9.805l-4.017,9.805H-351.568z"/>
		<path fill="#ECF0F1" d="M-337.747,410.515h13.822c3.829,0,6.766,1.021,8.812,3.066c1.728,1.728,2.591,4.032,2.591,6.91v0.088
			c0,2.446-0.598,4.441-1.792,5.98c-1.195,1.541-2.758,2.672-4.687,3.391l7.386,10.8h-7.775l-6.479-9.676h-0.086h-5.14v9.676h-6.652
			V410.515z M-324.357,425.2c1.642,0,2.901-0.39,3.78-1.166c0.878-0.777,1.317-1.813,1.317-3.11v-0.087
			c0-1.438-0.461-2.52-1.382-3.239c-0.922-0.719-2.203-1.079-3.845-1.079h-6.608v8.682H-324.357z"/>
	</g>
	<g>
		<path fill="#E74C3C" d="M-602.798,410.814h6.604v11.879h13.299v-2.972h5.417v12.207h-5.417v-3.146h-13.299v12.052h-6.604V410.814z
			"/>
	</g>
	<g>
		<path fill="#E74C3C" d="M-566.201,419.842c-0.772-1.814-1.866-3.396-3.28-4.738c-1.416-1.344-3.103-2.395-5.061-3.153
			c-1.959-0.757-4.11-1.136-6.454-1.136h-11.708v9.542h6.604v-3.581h5.104c1.343,0,2.572,0.222,3.687,0.665
			c1.116,0.442,2.065,1.065,2.853,1.866c0.786,0.8,1.4,1.757,1.844,2.872s0.665,2.331,0.665,3.646v0.086
			c0,1.344-0.222,2.559-0.665,3.644c-0.443,1.088-1.058,2.031-1.844,2.832c-0.787,0.8-1.737,1.414-2.853,1.843
			c-1.115,0.429-2.344,0.645-3.687,0.645h-5.104v-3.655h-6.604v9.616h11.708c2.344,0,4.495-0.386,6.454-1.158
			c1.958-0.771,3.645-1.83,5.061-3.174c1.415-1.343,2.508-2.93,3.28-4.761c0.772-1.828,1.158-3.802,1.158-5.917v-0.086
			C-565.043,423.623-565.429,421.658-566.201,419.842z"/>
	</g>
	<path fill="#ECF0F1" d="M-291.024,458.323h-329.643v-66.041h329.643V458.323z M-611.712,449.368h311.733v-48.132h-311.733V449.368z
		"/>
	<rect x="-661.802" y="519.698" fill="#E74C3C" width="411.914" height="187.302"/>
	<g>
		<path fill="#EAEAEA" d="M-558.462,598.562h23.022v6.005h-16.37v6.521h14.427v6.003h-14.427v11.706h-6.652V598.562z"/>
		<path fill="#EAEAEA" d="M-518.379,629.315c-2.332,0-4.478-0.41-6.436-1.231c-1.959-0.82-3.65-1.93-5.075-3.326
			c-1.426-1.396-2.534-3.036-3.326-4.924c-0.792-1.886-1.188-3.908-1.188-6.068v-0.086c0-2.16,0.403-4.183,1.209-6.069
			c0.806-1.886,1.922-3.542,3.348-4.968c1.425-1.424,3.125-2.547,5.097-3.368c1.972-0.821,4.125-1.232,6.457-1.232
			c2.333,0,4.477,0.411,6.436,1.232c1.958,0.821,3.65,1.93,5.075,3.326c1.426,1.397,2.533,3.037,3.326,4.924
			c0.792,1.887,1.188,3.909,1.188,6.068v0.087c0,2.158-0.403,4.183-1.209,6.067c-0.806,1.887-1.922,3.543-3.347,4.968
			c-1.425,1.426-3.125,2.549-5.097,3.369C-513.894,628.905-516.046,629.315-518.379,629.315z M-518.292,623.182
			c1.324,0,2.548-0.245,3.672-0.734c1.123-0.489,2.08-1.165,2.872-2.03c0.792-0.864,1.41-1.863,1.857-3.002
			c0.446-1.138,0.669-2.354,0.669-3.649v-0.086c0-1.296-0.223-2.521-0.669-3.672c-0.447-1.151-1.079-2.16-1.9-3.023
			c-0.82-0.864-1.792-1.549-2.915-2.051c-1.124-0.506-2.348-0.757-3.672-0.757c-1.354,0-2.584,0.245-3.693,0.734
			c-1.108,0.49-2.059,1.165-2.851,2.029s-1.411,1.864-1.857,3.003c-0.446,1.138-0.669,2.354-0.669,3.649v0.087
			c0,1.295,0.223,2.519,0.669,3.671c0.446,1.153,1.081,2.16,1.901,3.024c0.821,0.863,1.785,1.547,2.894,2.05
			C-520.877,622.931-519.646,623.182-518.292,623.182z"/>
		<path fill="#EAEAEA" d="M-484.603,629.315c-2.332,0-4.478-0.41-6.436-1.231c-1.958-0.82-3.649-1.93-5.075-3.326
			c-1.425-1.396-2.534-3.036-3.326-4.924c-0.792-1.886-1.188-3.908-1.188-6.068v-0.086c0-2.16,0.403-4.183,1.209-6.069
			c0.806-1.886,1.922-3.542,3.347-4.968c1.426-1.424,3.125-2.547,5.097-3.368s4.125-1.232,6.457-1.232
			c2.333,0,4.478,0.411,6.437,1.232c1.958,0.821,3.649,1.93,5.075,3.326c1.425,1.397,2.533,3.037,3.326,4.924
			c0.792,1.887,1.188,3.909,1.188,6.068v0.087c0,2.158-0.404,4.183-1.21,6.067c-0.806,1.887-1.922,3.543-3.347,4.968
			c-1.426,1.426-3.125,2.549-5.097,3.369C-480.117,628.905-482.27,629.315-484.603,629.315z M-484.516,623.182
			c1.324,0,2.548-0.245,3.672-0.734c1.123-0.489,2.08-1.165,2.872-2.03c0.792-0.864,1.411-1.863,1.857-3.002
			c0.447-1.138,0.67-2.354,0.67-3.649v-0.086c0-1.296-0.223-2.521-0.67-3.672c-0.446-1.151-1.079-2.16-1.9-3.023
			c-0.82-0.864-1.792-1.549-2.915-2.051c-1.124-0.506-2.348-0.757-3.672-0.757c-1.354,0-2.584,0.245-3.692,0.734
			c-1.109,0.49-2.059,1.165-2.851,2.029s-1.411,1.864-1.857,3.003c-0.447,1.138-0.669,2.354-0.669,3.649v0.087
			c0,1.295,0.223,2.519,0.669,3.671c0.446,1.153,1.08,2.16,1.901,3.024c0.82,0.863,1.785,1.547,2.894,2.05
			C-487.101,622.931-485.87,623.182-484.516,623.182z"/>
		<path fill="#EAEAEA" d="M-458.471,604.695h-9.2v-6.134h25.052v6.134h-9.2v24.102h-6.652V604.695z"/>
		<path fill="#EAEAEA" d="M-442.792,598.562h7.127l6.263,20.473l6.781-20.559h5.702l6.782,20.559l6.263-20.473h6.954l-10.323,30.45
			h-5.788l-6.825-19.781l-6.824,19.781h-5.788L-442.792,598.562z"/>
		<path fill="#EAEAEA" d="M-394.935,598.562h22.763v5.917h-16.198v6.135h14.253v5.917h-14.253v6.349h16.414v5.918h-22.979V598.562z"
			/>
		<path fill="#EAEAEA" d="M-358.565,598.347h6.133l12.958,30.45h-6.954l-2.764-6.782h-12.785l-2.765,6.782h-6.781L-358.565,598.347z
			 M-351.568,616.142l-4.017-9.805l-4.017,9.805H-351.568z"/>
		<path fill="#EAEAEA" d="M-337.747,598.562h13.822c3.829,0,6.766,1.021,8.812,3.066c1.728,1.729,2.591,4.032,2.591,6.91v0.088
			c0,2.447-0.598,4.442-1.792,5.981c-1.195,1.541-2.758,2.671-4.687,3.391l7.386,10.799h-7.775l-6.479-9.675h-0.086h-5.14v9.675
			h-6.652V598.562z M-324.357,613.247c1.642,0,2.901-0.389,3.78-1.166c0.878-0.776,1.317-1.813,1.317-3.109v-0.087
			c0-1.439-0.461-2.52-1.382-3.239c-0.922-0.72-2.203-1.079-3.845-1.079h-6.608v8.681H-324.357z"/>
	</g>
	<g>
		<path fill="#EAEAEA" d="M-602.798,598.862h6.604v11.878h13.299v-2.972h5.417v12.207h-5.417v-3.145h-13.299v12.051h-6.604V598.862z
			"/>
	</g>
	<g>
		<path fill="#EAEAEA" d="M-566.201,607.889c-0.772-1.813-1.866-3.396-3.28-4.738c-1.416-1.343-3.103-2.395-5.061-3.152
			c-1.959-0.758-4.11-1.136-6.454-1.136h-11.708v9.542h6.604v-3.581h5.104c1.343,0,2.572,0.222,3.687,0.664
			c1.116,0.443,2.065,1.066,2.853,1.866c0.786,0.8,1.4,1.758,1.844,2.872c0.443,1.115,0.665,2.331,0.665,3.647v0.085
			c0,1.345-0.222,2.559-0.665,3.645c-0.443,1.087-1.058,2.031-1.844,2.831c-0.787,0.8-1.737,1.414-2.853,1.844
			c-1.115,0.429-2.344,0.645-3.687,0.645h-5.104v-3.656h-6.604v9.616h11.708c2.344,0,4.495-0.386,6.454-1.157
			c1.958-0.771,3.645-1.83,5.061-3.175c1.415-1.342,2.508-2.93,3.28-4.761c0.772-1.828,1.158-3.801,1.158-5.916v-0.086
			C-565.043,611.67-565.429,609.706-566.201,607.889z"/>
	</g>
	<path fill="#EAEAEA" d="M-291.024,646.37h-329.643v-66.041h329.643V646.37z M-611.712,637.416h311.733v-48.132h-311.733V637.416z"
		/>
	<rect x="1016.026" y="283.329" fill="#ECF0F1" width="135.192" height="297.316"/>
	<rect x="1151.756" y="283.329" fill="#2C3E50" width="135.193" height="297.316"/>
	<rect x="1287.487" y="283.329" fill="#E74C3C" width="135.193" height="297.316"/>
</g>
<g id="Capa_3">
</g>
<g id="Capa_2">
	<text transform="matrix(1 0 0 1 87 470.2715)" font-family="'HelveticaLTStd-Roman'" font-size="21">Tipografia Secundaria</text>
	<text transform="matrix(1 0 0 1 87 542.2715)" font-family="'Gotham-Light'" font-size="36">Gotham Regular</text>
	<text transform="matrix(1 0 0 1 87 574.2715)"><tspan x="0" y="0" font-family="'Gotham-Light'" font-size="24">ABCDEFGHIJKLMNOPQRSTUVWXYZ</tspan><tspan x="0" y="28.8" font-family="'Gotham-Light'" font-size="24">abcdefghijklmnopqrstuvwxyz</tspan><tspan x="0" y="57.601" font-family="'Gotham-Light'" font-size="24">0123456789</tspan><tspan x="0" y="86.4" font-family="'Gotham-Light'" font-size="24">¡!¿?%$=”{}()[]</tspan></text>
	<text transform="matrix(1 0 0 1 87 140.2715)" font-family="'HelveticaLTStd-Roman'" font-size="21">Tipografia Principal</text>
	<text transform="matrix(1 0 0 1 -742.458 80.2744)" font-family="'HelveticaLTStd-Roman'" font-size="21">Logitpo</text>
	<text transform="matrix(1 0 0 1 893.96 80.2744)" font-family="'HelveticaLTStd-Roman'" font-size="21">Colores</text>
	<text transform="matrix(1 0 0 1 1047.9443 225.4326)"><tspan x="0" y="0" font-family="'HelveticaLTStd-Roman'" font-size="18">Clouds</tspan><tspan x="-1.512" y="21.6" font-family="'HelveticaLTStd-Roman'" font-size="18">#ecf0f1</tspan></text>
	<text transform="matrix(1 0 0 1 1162.9307 226.9326)"><tspan x="0" y="0" font-family="'HelveticaLTStd-Roman'" font-size="18">Midnight Blue</tspan><tspan x="19.997" y="21.6" font-family="'HelveticaLTStd-Roman'" font-size="18">#2c3e50</tspan></text>
	<text transform="matrix(1 0 0 1 1329.4512 223.9326)"><tspan x="0" y="0" font-family="'HelveticaLTStd-Roman'" font-size="18">Alizarin</tspan><tspan x="-4.519" y="21.6" font-family="'HelveticaLTStd-Roman'" font-size="18">#e74c3c</tspan></text>
	<text transform="matrix(1 0 0 1 87 212.2715)" font-family="'Gotham-Bold'" font-size="36">Gotham Bold</text>
	<text transform="matrix(1 0 0 1 87 244.2715)"><tspan x="0" y="0" font-family="'Gotham-Bold'" font-size="24">ABCDEFGHIJKLMNOPQRSTUVWXYZ</tspan><tspan x="0" y="28.8" font-family="'Gotham-Bold'" font-size="24">abcdefghijklmnopqrstuvwxyz</tspan><tspan x="0" y="57.601" font-family="'Gotham-Bold'" font-size="24">0123456789</tspan><tspan x="0" y="86.4" font-family="'Gotham-Bold'" font-size="24">¡!¿?%$=”{}()[]</tspan></text>
</g>
</svg>
