<?xml version="1.0" encoding="utf-8"?>
<!-- Generator: Adobe Illustrator 16.0.0, SVG Export Plug-In . SVG Version: 6.00 Build 0)  -->
<!DOCTYPE svg PUBLIC "-//W3C//DTD SVG 1.0//EN" "http://www.w3.org/TR/2001/REC-SVG-20010904/DTD/svg10.dtd">
<svg version="1.0" id="Capa_1" xmlns="http://www.w3.org/2000/svg" xmlns:xlink="http://www.w3.org/1999/xlink" x="0px" y="0px"
	 width="512px" height="512px" viewBox="0 0 512 512" enable-background="new 0 0 512 512" xml:space="preserve">
<g>
	<path d="M69.164,305.287h9.874v1.457h-4.116v10.704H73.28v-10.704h-4.116V305.287z"/>
	<path d="M80.068,306.981v-1.694h1.491v1.694H80.068z M81.559,317.448h-1.491v-8.858h1.491V317.448z"/>
	<path d="M83.674,308.59h1.406v1.254h0.034c0.356-0.509,1.033-1.508,2.643-1.508c2.354,0,3.692,1.931,3.692,4.421
		c0,2.117-0.88,4.945-3.896,4.945c-1.186,0-1.964-0.559-2.354-1.186h-0.034v4.438h-1.49V308.59z M87.519,316.415
		c1.626,0,2.388-1.474,2.388-3.421c0-1.135-0.119-3.32-2.422-3.32c-2.151,0-2.388,2.32-2.388,3.761
		C85.097,315.788,86.57,316.415,87.519,316.415z"/>
	<path d="M96.813,308.336c2.829,0,4.116,2.389,4.116,4.675s-1.287,4.675-4.116,4.675s-4.116-2.389-4.116-4.675
		S93.985,308.336,96.813,308.336z M96.813,316.398c2.134,0,2.575-2.202,2.575-3.388s-0.44-3.388-2.575-3.388
		c-2.134,0-2.574,2.202-2.574,3.388S94.68,316.398,96.813,316.398z"/>
	<path d="M109.97,316.72c0,1.271-0.017,4.455-4.116,4.455c-1.05,0-3.1-0.288-3.388-2.643h1.491c0.271,1.406,1.643,1.406,1.999,1.406
		c2.575,0,2.524-2.066,2.524-3.117v-0.372h-0.034v0.067c-0.39,0.627-1.168,1.186-2.354,1.186c-3.015,0-3.896-2.828-3.896-4.945
		c0-2.49,1.338-4.421,3.692-4.421c1.609,0,2.287,0.999,2.643,1.508h0.034v-1.254h1.406V316.72z M106.125,316.415
		c0.949,0,2.422-0.627,2.422-2.98c0-1.44-0.237-3.761-2.388-3.761c-2.303,0-2.422,2.186-2.422,3.32
		C103.737,314.941,104.5,316.415,106.125,316.415z"/>
	<path d="M113.557,317.448h-1.49v-8.858h1.406v1.474h0.034c0.593-1.033,1.372-1.728,2.49-1.728c0.187,0,0.271,0.017,0.39,0.051
		v1.541h-0.559c-1.389,0-2.27,1.084-2.27,2.371V317.448z"/>
	<path d="M117.282,311.283c0.067-2.117,1.473-2.947,3.658-2.947c0.711,0,3.286,0.203,3.286,2.473v5.099
		c0,0.372,0.187,0.524,0.491,0.524c0.136,0,0.322-0.033,0.491-0.067v1.084c-0.254,0.067-0.474,0.169-0.813,0.169
		c-1.321,0-1.524-0.677-1.575-1.354c-0.576,0.627-1.473,1.439-3.201,1.439c-1.626,0-2.778-1.033-2.778-2.558
		c0-0.745,0.22-2.473,2.693-2.777l2.456-0.305c0.355-0.034,0.779-0.17,0.779-1.051c0-0.932-0.677-1.439-2.083-1.439
		c-1.694,0-1.931,1.033-2.033,1.711H117.282z M122.735,312.926c-0.237,0.187-0.61,0.322-2.456,0.56
		c-0.728,0.102-1.897,0.321-1.897,1.439c0,0.965,0.491,1.541,1.609,1.541c1.389,0,2.744-0.897,2.744-2.083V312.926z"/>
	<path d="M128.592,309.826v7.622h-1.491v-7.622h-1.219v-1.236h1.219v-1.524c0-1.338,0.847-1.947,2.304-1.947
		c0.22,0,0.44,0.017,0.677,0.033v1.339c-0.186-0.018-0.423-0.034-0.61-0.034c-0.644,0-0.88,0.321-0.88,1.033v1.101h1.49v1.236
		H128.592z"/>
	<path d="M131.232,306.981v-1.694h1.491v1.694H131.232z M132.723,317.448h-1.491v-8.858h1.491V317.448z"/>
	<path d="M134.907,311.283c0.067-2.117,1.473-2.947,3.658-2.947c0.711,0,3.286,0.203,3.286,2.473v5.099
		c0,0.372,0.187,0.524,0.491,0.524c0.136,0,0.322-0.033,0.491-0.067v1.084c-0.254,0.067-0.474,0.169-0.813,0.169
		c-1.321,0-1.524-0.677-1.575-1.354c-0.576,0.627-1.473,1.439-3.201,1.439c-1.626,0-2.778-1.033-2.778-2.558
		c0-0.745,0.22-2.473,2.693-2.777l2.456-0.305c0.355-0.034,0.779-0.17,0.779-1.051c0-0.932-0.677-1.439-2.083-1.439
		c-1.694,0-1.931,1.033-2.033,1.711H134.907z M140.36,312.926c-0.237,0.187-0.61,0.322-2.456,0.56
		c-0.728,0.102-1.897,0.321-1.897,1.439c0,0.965,0.491,1.541,1.609,1.541c1.389,0,2.744-0.897,2.744-2.083V312.926z"/>
	<path d="M156.598,308.844c-0.085-1.88-1.643-2.473-3.015-2.473c-1.033,0-2.778,0.288-2.778,2.135c0,1.032,0.728,1.371,1.439,1.541
		l3.472,0.796c1.575,0.372,2.761,1.321,2.761,3.252c0,2.879-2.676,3.676-4.759,3.676c-2.252,0-3.133-0.678-3.675-1.169
		c-1.033-0.932-1.236-1.948-1.236-3.083h1.541c0,2.202,1.795,2.846,3.354,2.846c1.186,0,3.185-0.305,3.185-2.05
		c0-1.27-0.593-1.677-2.592-2.15l-2.49-0.576c-0.796-0.187-2.591-0.745-2.591-2.862c0-1.897,1.236-3.76,4.184-3.76
		c4.251,0,4.675,2.54,4.742,3.878H156.598z"/>
	<path d="M167.891,314.671c-0.051,0.423-0.458,1.677-1.575,2.422c-0.406,0.271-0.982,0.609-2.405,0.609
		c-2.49,0-3.963-1.88-3.963-4.438c0-2.744,1.321-4.929,4.251-4.929c2.558,0,3.811,2.032,3.811,5.166h-6.47
		c0,1.846,0.864,2.913,2.575,2.913c1.406,0,2.235-1.084,2.286-1.744H167.891z M166.468,312.316
		c-0.084-1.372-0.661-2.643-2.473-2.643c-1.372,0-2.456,1.271-2.456,2.643H166.468z"/>
	<path d="M175.322,311.571c-0.186-1.186-0.847-1.897-2.1-1.897c-1.846,0-2.439,1.762-2.439,3.337c0,1.524,0.373,3.404,2.422,3.404
		c0.999,0,1.863-0.745,2.117-2.101h1.44c-0.152,1.406-1.016,3.388-3.608,3.388c-2.49,0-3.963-1.88-3.963-4.438
		c0-2.744,1.321-4.929,4.251-4.929c2.32,0,3.201,1.693,3.32,3.235H175.322z"/>
	<path d="M184.025,317.448v-1.287l-0.034-0.034c-0.627,1.033-1.389,1.575-2.812,1.575c-1.304,0-2.879-0.627-2.879-2.744v-6.368h1.49
		v5.877c0,1.457,0.746,1.948,1.711,1.948c1.88,0,2.439-1.66,2.439-2.947v-4.878h1.49v8.858H184.025z"/>
	<path d="M194.878,317.448h-1.491v-5.454c0-1.541-0.44-2.32-1.897-2.32c-0.847,0-2.337,0.542-2.337,2.947v4.827h-1.49v-8.858h1.406
		v1.254h0.034c0.322-0.475,1.152-1.508,2.676-1.508c1.372,0,3.1,0.559,3.1,3.083V317.448z"/>
	<path d="M204.427,317.448h-1.406v-1.22h-0.034c-0.644,1.203-1.66,1.474-2.524,1.474c-3.015,0-3.896-2.828-3.896-4.945
		c0-2.49,1.338-4.421,3.692-4.421c1.609,0,2.287,0.999,2.642,1.508l0.034-0.119v-4.438h1.49V317.448z M200.498,316.415
		c0.948,0,2.422-0.627,2.422-2.98c0-1.44-0.237-3.761-2.388-3.761c-2.304,0-2.422,2.186-2.422,3.32
		C198.11,314.941,198.872,316.415,200.498,316.415z"/>
	<path d="M206.439,311.283c0.067-2.117,1.473-2.947,3.658-2.947c0.711,0,3.286,0.203,3.286,2.473v5.099
		c0,0.372,0.186,0.524,0.491,0.524c0.136,0,0.322-0.033,0.491-0.067v1.084c-0.254,0.067-0.474,0.169-0.813,0.169
		c-1.321,0-1.524-0.677-1.575-1.354c-0.576,0.627-1.473,1.439-3.201,1.439c-1.626,0-2.777-1.033-2.777-2.558
		c0-0.745,0.22-2.473,2.693-2.777l2.456-0.305c0.355-0.034,0.779-0.17,0.779-1.051c0-0.932-0.677-1.439-2.083-1.439
		c-1.694,0-1.931,1.033-2.033,1.711H206.439z M211.893,312.926c-0.237,0.187-0.61,0.322-2.456,0.56
		c-0.728,0.102-1.897,0.321-1.897,1.439c0,0.965,0.491,1.541,1.609,1.541c1.389,0,2.744-0.897,2.744-2.083V312.926z"/>
	<path d="M217.597,317.448h-1.49v-8.858h1.406v1.474h0.034c0.593-1.033,1.372-1.728,2.49-1.728c0.187,0,0.271,0.017,0.39,0.051
		v1.541h-0.559c-1.389,0-2.27,1.084-2.27,2.371V317.448z"/>
	<path d="M221.829,306.981v-1.694h1.491v1.694H221.829z M223.32,317.448h-1.491v-8.858h1.491V317.448z"/>
	<path d="M225.503,311.283c0.067-2.117,1.473-2.947,3.658-2.947c0.711,0,3.286,0.203,3.286,2.473v5.099
		c0,0.372,0.186,0.524,0.491,0.524c0.136,0,0.322-0.033,0.491-0.067v1.084c-0.254,0.067-0.474,0.169-0.813,0.169
		c-1.321,0-1.524-0.677-1.575-1.354c-0.576,0.627-1.473,1.439-3.201,1.439c-1.626,0-2.777-1.033-2.777-2.558
		c0-0.745,0.22-2.473,2.693-2.777l2.456-0.305c0.355-0.034,0.779-0.17,0.779-1.051c0-0.932-0.677-1.439-2.083-1.439
		c-1.694,0-1.931,1.033-2.033,1.711H225.503z M230.957,312.926c-0.237,0.187-0.61,0.322-2.456,0.56
		c-0.728,0.102-1.897,0.321-1.897,1.439c0,0.965,0.491,1.541,1.609,1.541c1.389,0,2.744-0.897,2.744-2.083V312.926z"/>
</g>
<g>
	<path d="M71.045,365.397v-0.059c0-5.484,3.976-10.506,10.042-10.506c3.309,0,5.398,0.987,7.43,2.67l-0.987,1.132
		c-1.596-1.393-3.454-2.438-6.53-2.438c-4.934,0-8.387,4.18-8.387,9.084v0.058c0,5.254,3.279,9.172,8.707,9.172
		c2.583,0,4.992-1.074,6.472-2.322v-5.833H81v-1.394h8.242v7.836c-1.828,1.625-4.672,3.048-7.981,3.048
		C74.847,375.846,71.045,371.114,71.045,365.397z"/>
	<path d="M93.365,368.154v-0.058c0-4.15,3.222-7.749,7.633-7.749c4.382,0,7.575,3.541,7.575,7.69v0.059
		c0,4.149-3.222,7.749-7.633,7.749C96.558,375.846,93.365,372.305,93.365,368.154z M107.034,368.154v-0.058
		c0-3.57-2.67-6.414-6.094-6.414c-3.512,0-6.037,2.873-6.037,6.355v0.059c0,3.569,2.67,6.414,6.094,6.414
		C104.509,374.511,107.034,371.637,107.034,368.154z"/>
	<path d="M113.74,371.695v-9.693h-2.148v-1.307h2.148v-4.73h1.422v4.73h5.195v1.307h-5.195v9.548c0,2.119,1.248,2.873,2.96,2.873
		c0.725,0,1.335-0.145,2.176-0.522v1.336c-0.754,0.348-1.48,0.521-2.409,0.521C115.598,375.758,113.74,374.511,113.74,371.695z"/>
	<path d="M124.566,354.311h1.422v9.143c0.987-1.741,2.641-3.105,5.34-3.105c3.744,0,5.92,2.554,5.92,6.095v9.055h-1.422v-8.794
		c0-3.047-1.712-5.05-4.701-5.05c-2.902,0-5.137,2.206-5.137,5.282v8.562h-1.422V354.311z"/>
	<path d="M141.139,371.202v-0.059c0-3.076,2.641-4.817,6.472-4.817c2.061,0,3.482,0.261,4.905,0.639v-0.639
		c0-2.989-1.829-4.527-4.876-4.527c-1.799,0-3.279,0.493-4.644,1.189l-0.522-1.248c1.625-0.754,3.222-1.276,5.253-1.276
		c2.002,0,3.599,0.551,4.672,1.625c0.987,0.986,1.509,2.351,1.509,4.179v9.229h-1.393v-2.467c-1.016,1.422-2.844,2.815-5.659,2.815
		C144.099,375.846,141.139,374.278,141.139,371.202z M152.544,369.954v-1.684c-1.248-0.319-2.902-0.667-5.021-0.667
		c-3.135,0-4.876,1.393-4.876,3.453v0.058c0,2.148,2.032,3.396,4.295,3.396C149.961,374.511,152.544,372.653,152.544,369.954z"/>
	<path d="M159.018,360.695h1.422v2.642c0.958-1.538,2.293-2.989,4.934-2.989c2.583,0,4.18,1.479,4.992,3.192
		c0.958-1.654,2.554-3.192,5.34-3.192c3.512,0,5.688,2.467,5.688,6.182v8.968h-1.422v-8.794c0-3.192-1.654-5.05-4.383-5.05
		c-2.496,0-4.672,1.916-4.672,5.225v8.619h-1.422v-8.881c0-3.076-1.684-4.963-4.325-4.963c-2.641,0-4.73,2.322-4.73,5.312v8.532
		h-1.422V360.695z"/>
	<path d="M195.646,355.182h8.532c2.496,0,4.499,0.783,5.717,2.002c0.958,0.958,1.539,2.322,1.539,3.773v0.058
		c0,3.396-2.525,5.341-5.95,5.805l6.704,8.678h-1.916l-6.472-8.416h-0.058h-6.588v8.416h-1.509V355.182z M204.004,365.717
		c3.396,0,5.92-1.713,5.92-4.644v-0.059c0-2.728-2.148-4.44-5.833-4.44h-6.937v9.143H204.004z"/>
	<path d="M215.004,368.125v-0.058c0-4.295,3.019-7.72,7.023-7.72c4.15,0,6.792,3.366,6.792,7.749c0,0.261,0,0.348-0.029,0.58
		h-12.276c0.261,3.686,2.902,5.834,5.805,5.834c2.292,0,3.86-1.017,5.079-2.322l0.987,0.871c-1.509,1.625-3.279,2.786-6.124,2.786
		C218.371,375.846,215.004,372.74,215.004,368.125z M227.281,367.399c-0.203-2.989-1.915-5.746-5.311-5.746
		c-2.931,0-5.195,2.467-5.456,5.746H227.281z"/>
	<path d="M232.68,377.935l0.842-1.16c1.771,1.363,3.802,2.089,5.979,2.089c3.396,0,5.805-1.944,5.805-5.746v-2.147
		c-1.277,1.828-3.25,3.425-6.182,3.425c-3.569,0-7.11-2.729-7.11-6.966v-0.058c0-4.267,3.541-7.023,7.11-7.023
		c2.96,0,4.963,1.567,6.182,3.309v-2.961h1.422v12.509c0,2.147-0.696,3.831-1.886,5.021c-1.277,1.276-3.192,1.973-5.369,1.973
		C237.005,380.198,234.712,379.444,232.68,377.935z M245.392,367.399v-0.058c0-3.425-3.047-5.63-6.124-5.63
		c-3.105,0-5.718,2.147-5.718,5.601v0.059c0,3.337,2.67,5.659,5.718,5.659C242.345,373.03,245.392,370.767,245.392,367.399z"/>
	<path d="M251.836,369.751v-9.056h1.422v8.794c0,3.048,1.712,5.05,4.702,5.05c2.902,0,5.137-2.205,5.137-5.282v-8.562h1.422v14.802
		h-1.422v-2.757c-0.986,1.741-2.641,3.105-5.34,3.105C254.013,375.846,251.836,373.291,251.836,369.751z"/>
	<path d="M270.121,354.311h1.422v21.187h-1.422V354.311z"/>
	<path d="M275.927,371.202v-0.059c0-3.076,2.641-4.817,6.472-4.817c2.061,0,3.482,0.261,4.904,0.639v-0.639
		c0-2.989-1.828-4.527-4.875-4.527c-1.8,0-3.28,0.493-4.644,1.189l-0.522-1.248c1.625-0.754,3.221-1.276,5.253-1.276
		c2.002,0,3.599,0.551,4.673,1.625c0.986,0.986,1.509,2.351,1.509,4.179v9.229h-1.394v-2.467c-1.016,1.422-2.844,2.815-5.659,2.815
		C278.887,375.846,275.927,374.278,275.927,371.202z M287.332,369.954v-1.684c-1.248-0.319-2.902-0.667-5.021-0.667
		c-3.135,0-4.876,1.393-4.876,3.453v0.058c0,2.148,2.031,3.396,4.295,3.396C284.749,374.511,287.332,372.653,287.332,369.954z"/>
	<path d="M293.805,360.695h1.422v4.209c1.161-2.642,3.628-4.557,6.559-4.44v1.567h-0.145c-3.425,0-6.414,2.582-6.414,7.4v6.065
		h-1.422V360.695z"/>
</g>
<g>
	<path d="M76.085,387.656h0.967l6.308,13.641h-1.103l-1.722-3.792h-7.991l-1.722,3.792h-1.044L76.085,387.656z M80.11,396.596
		l-3.56-7.836l-3.579,7.836H80.11z"/>
	<path d="M86.225,387.753h5.592c1.528,0,2.767,0.445,3.521,1.2c0.562,0.561,0.871,1.276,0.871,2.128v0.039
		c0,1.838-1.2,2.767-2.303,3.212c1.625,0.425,3.057,1.354,3.057,3.23v0.039c0,2.264-1.935,3.695-4.856,3.695h-5.882V387.753z
		 M91.701,394.003c2.032,0,3.482-0.987,3.482-2.786v-0.039c0-1.49-1.219-2.496-3.386-2.496h-4.566v5.321H91.701z M92.146,400.368
		c2.322,0,3.792-1.064,3.792-2.767v-0.039c0-1.664-1.451-2.631-4.121-2.631h-4.585v5.437H92.146z"/>
	<path d="M99.596,394.563v-0.038c0-3.831,2.863-7.004,6.771-7.004c2.419,0,3.87,0.89,5.263,2.166l-0.716,0.735
		c-1.18-1.142-2.535-1.992-4.566-1.992c-3.25,0-5.708,2.65-5.708,6.056v0.039c0,3.424,2.496,6.095,5.727,6.095
		c1.954,0,3.29-0.755,4.663-2.109l0.677,0.658c-1.432,1.412-2.979,2.36-5.379,2.36C102.459,401.529,99.596,398.453,99.596,394.563z"
		/>
	<path d="M114.475,387.753h4.508c4.256,0,7.197,2.922,7.197,6.733v0.039c0,3.812-2.941,6.771-7.197,6.771h-4.508V387.753z
		 M118.983,400.368c3.772,0,6.152-2.573,6.152-5.805v-0.038c0-3.212-2.38-5.844-6.152-5.844h-3.502v11.687H118.983z"/>
	<path d="M129.606,387.753h9.635v0.929h-8.629v5.321h7.759v0.929h-7.759v5.437h8.726v0.929h-9.732V387.753z"/>
	<path d="M142.57,387.753h9.539v0.929h-8.533v5.553h7.662v0.929h-7.662v6.134h-1.006V387.753z"/>
	<path d="M154.277,394.563v-0.038c0-3.657,2.65-7.004,6.694-7.004c2.206,0,3.599,0.657,4.953,1.779l-0.658,0.755
		c-1.064-0.929-2.303-1.625-4.354-1.625c-3.289,0-5.592,2.786-5.592,6.056v0.039c0,3.502,2.187,6.113,5.805,6.113
		c1.722,0,3.328-0.716,4.314-1.548v-3.889h-4.527v-0.929h5.495v5.224c-1.219,1.084-3.115,2.032-5.32,2.032
		C156.812,401.529,154.277,398.375,154.277,394.563z"/>
	<path d="M170.047,387.753h1.006v6.269h8.668v-6.269h1.006v13.544h-1.006v-6.346h-8.668v6.346h-1.006V387.753z"/>
	<path d="M184.888,387.753h1.006v13.544h-1.006V387.753z"/>
	<path d="M188.757,398.956l0.832-0.522c0.832,1.412,1.741,2.147,3.328,2.147c1.664,0,2.941-1.258,2.941-3.618v-9.21h1.006v9.133
		c0,1.567-0.484,2.767-1.238,3.521c-0.716,0.716-1.683,1.083-2.767,1.083C190.847,401.49,189.589,400.445,188.757,398.956z"/>
	<path d="M200.677,387.753h1.006v8.9l8.629-8.9h1.374l-5.921,5.979l6.172,7.565h-1.316l-5.572-6.85l-3.367,3.405v3.444h-1.006
		V387.753z"/>
	<path d="M214.512,387.753h1.006v12.615h7.952v0.929h-8.958V387.753z"/>
	<path d="M226.489,387.753h0.948l5.437,8.011l5.437-8.011h0.948v13.544h-1.006v-11.764l-5.359,7.797h-0.078l-5.359-7.797v11.764
		h-0.967V387.753z"/>
	<path d="M243.284,387.753h0.948l9.345,11.783v-11.783h0.968v13.544h-0.755l-9.539-12.034v12.034h-0.967V387.753z"/>
	<path d="M257.971,394.563v-0.038c0-3.696,2.728-7.004,6.83-7.004c4.102,0,6.791,3.27,6.791,6.965c0.02,0.02,0.02,0.02,0,0.039
		c0,3.695-2.729,7.004-6.83,7.004S257.971,398.259,257.971,394.563z M270.547,394.563v-0.038c0-3.348-2.438-6.095-5.785-6.095
		s-5.746,2.708-5.746,6.056v0.039c0,3.347,2.438,6.095,5.785,6.095C268.147,400.62,270.547,397.911,270.547,394.563z"/>
	<path d="M275.018,387.753h4.914c2.979,0,5.03,1.528,5.03,4.141v0.039c0,2.844-2.457,4.314-5.282,4.314h-3.656v5.05h-1.006V387.753z
		 M279.738,395.318c2.515,0,4.218-1.315,4.218-3.328v-0.038c0-2.148-1.664-3.271-4.102-3.271h-3.831v6.637H279.738z"/>
	<path d="M298.507,399.981c-1.142,0.967-2.631,1.548-4.372,1.548c-4.103,0-6.792-3.271-6.792-6.966v-0.038
		c0-3.696,2.729-7.004,6.83-7.004s6.791,3.27,6.791,6.965c0.02,0.02,0.02,0.02,0,0.039c0,1.799-0.638,3.502-1.779,4.778l1.935,1.626
		l-0.716,0.773L298.507,399.981z M297.771,399.343l-2.631-2.244l0.716-0.794l2.593,2.361c0.929-1.084,1.47-2.535,1.47-4.103v-0.038
		c0-3.348-2.438-6.095-5.784-6.095c-3.348,0-5.747,2.708-5.747,6.056v0.039c0,3.347,2.438,6.095,5.785,6.095
		C295.585,400.62,296.823,400.136,297.771,399.343z"/>
	<path d="M304.389,387.753h5.688c1.664,0,2.999,0.522,3.812,1.335c0.639,0.639,1.025,1.548,1.025,2.516v0.039
		c0,2.264-1.683,3.56-3.966,3.869l4.47,5.785h-1.277l-4.314-5.611h-0.039h-4.392v5.611h-1.007V387.753z M309.961,394.776
		c2.265,0,3.947-1.142,3.947-3.096v-0.038c0-1.819-1.432-2.961-3.889-2.961h-4.624v6.095H309.961z"/>
	<path d="M317.509,399.323l0.658-0.755c1.489,1.374,2.863,2.013,4.856,2.013c2.031,0,3.424-1.142,3.424-2.689v-0.039
		c0-1.432-0.754-2.264-3.831-2.883c-3.25-0.657-4.565-1.761-4.565-3.812v-0.038c0-2.013,1.838-3.561,4.354-3.561
		c1.973,0,3.27,0.542,4.643,1.645l-0.638,0.794c-1.277-1.104-2.555-1.529-4.044-1.529c-1.993,0-3.309,1.142-3.309,2.555v0.038
		c0,1.432,0.735,2.303,3.947,2.96c3.134,0.639,4.45,1.761,4.45,3.734v0.039c0,2.187-1.877,3.695-4.489,3.695
		C320.798,401.49,319.134,400.774,317.509,399.323z"/>
	<path d="M334.226,388.682h-4.721v-0.929h10.448v0.929h-4.722v12.615h-1.006V388.682z"/>
	<path d="M342.799,395.667v-7.914h1.006v7.817c0,3.192,1.722,5.03,4.585,5.03c2.748,0,4.509-1.664,4.509-4.934v-7.914h1.006v7.798
		c0,3.889-2.264,5.959-5.553,5.959C345.101,401.51,342.799,399.459,342.799,395.667z"/>
	<path d="M356.556,387.753h1.122l5.301,12.46l5.321-12.46h1.064l-5.96,13.641h-0.89L356.556,387.753z"/>
	<path d="M370.991,387.753h1.122l4.256,12.054l3.967-12.092h0.774l3.966,12.092l4.257-12.054h1.045l-4.915,13.641h-0.813
		l-3.966-11.764l-3.967,11.764h-0.813L370.991,387.753z"/>
	<path d="M397.44,394.39l-5.204-6.637h1.199l4.624,5.96l4.604-5.96h1.181l-5.186,6.617l5.379,6.927h-1.199l-4.817-6.249
		l-4.799,6.249h-1.181L397.44,394.39z"/>
	<path d="M411.063,395.938l-5.805-8.185h1.258l5.069,7.275l5.088-7.275h1.2l-5.805,8.165v5.379h-1.006V395.938z"/>
	<path d="M419.615,400.735l9.268-12.073h-8.938v-0.909h10.371v0.562l-9.269,12.073h9.269v0.909h-10.7V400.735z"/>
	<path d="M69.914,421.653v-0.039c0-2.051,1.761-3.212,4.314-3.212c1.374,0,2.322,0.175,3.27,0.426v-0.426
		c0-1.992-1.219-3.018-3.25-3.018c-1.2,0-2.187,0.328-3.096,0.793l-0.348-0.832c1.083-0.503,2.147-0.852,3.502-0.852
		c1.335,0,2.399,0.368,3.115,1.084c0.658,0.657,1.006,1.566,1.006,2.786v6.152h-0.929v-1.645c-0.677,0.948-1.896,1.877-3.773,1.877
		C71.887,424.749,69.914,423.704,69.914,421.653z M77.518,420.821v-1.122c-0.832-0.213-1.935-0.445-3.348-0.445
		c-2.089,0-3.25,0.929-3.25,2.303v0.038c0,1.432,1.354,2.264,2.864,2.264C75.795,423.858,77.518,422.62,77.518,420.821z"/>
	<path d="M82.781,422.389v2.128h-0.948v-14.124h0.948v6.462c0.851-1.296,2.109-2.438,4.063-2.438c2.38,0,4.798,1.915,4.798,5.127
		v0.039c0,3.212-2.418,5.166-4.798,5.166C84.87,424.749,83.593,423.627,82.781,422.389z M90.617,419.621v-0.038
		c0-2.593-1.799-4.257-3.87-4.257c-2.051,0-4.024,1.722-4.024,4.237v0.039c0,2.534,1.974,4.237,4.024,4.237
		C88.895,423.84,90.617,422.272,90.617,419.621z"/>
	<path d="M93.926,419.621v-0.038c0-2.767,2.206-5.166,5.031-5.166c1.857,0,3.018,0.852,3.947,1.818l-0.677,0.696
		c-0.851-0.87-1.818-1.625-3.289-1.625c-2.244,0-3.986,1.877-3.986,4.237v0.039c0,2.38,1.8,4.275,4.063,4.275
		c1.393,0,2.477-0.716,3.309-1.645l0.658,0.581c-1.006,1.142-2.206,1.954-4.024,1.954C96.112,424.749,93.926,422.389,93.926,419.621
		z"/>
	<path d="M104.819,419.621v-0.038c0-3.212,2.419-5.166,4.799-5.166c1.973,0,3.25,1.122,4.063,2.36v-6.385h0.948v14.124h-0.948
		v-2.206c-0.852,1.297-2.109,2.438-4.063,2.438C107.238,424.749,104.819,422.833,104.819,419.621z M113.739,419.603v-0.039
		c0-2.534-1.974-4.237-4.024-4.237c-2.148,0-3.87,1.567-3.87,4.218v0.039c0,2.593,1.799,4.257,3.87,4.257
		C111.766,423.84,113.739,422.117,113.739,419.603z"/>
	<path d="M117.551,419.603v-0.039c0-2.863,2.012-5.146,4.682-5.146c2.767,0,4.528,2.244,4.528,5.166c0,0.174,0,0.232-0.02,0.387
		h-8.184c0.174,2.457,1.935,3.889,3.87,3.889c1.528,0,2.573-0.677,3.386-1.548l0.658,0.581c-1.006,1.083-2.186,1.857-4.082,1.857
		C119.796,424.749,117.551,422.679,117.551,419.603z M125.736,419.118c-0.136-1.992-1.277-3.831-3.541-3.831
		c-1.954,0-3.463,1.645-3.637,3.831H125.736z"/>
	<path d="M130.109,415.52h-1.432v-0.87h1.432v-0.968c0-1.122,0.31-2.012,0.871-2.573c0.503-0.503,1.2-0.774,2.07-0.774
		c0.6,0,1.025,0.078,1.47,0.232v0.891c-0.561-0.175-0.967-0.252-1.47-0.252c-1.354,0-1.993,0.813-1.993,2.496v0.948h3.444v0.87
		h-3.444v8.997h-0.948V415.52z"/>
	<path d="M136.146,426.142l0.561-0.773c1.18,0.909,2.535,1.393,3.986,1.393c2.264,0,3.87-1.296,3.87-3.831v-1.432
		c-0.852,1.219-2.167,2.283-4.121,2.283c-2.38,0-4.741-1.818-4.741-4.644V419.1c0-2.845,2.361-4.683,4.741-4.683
		c1.973,0,3.308,1.045,4.121,2.206v-1.974h0.948v8.339c0,1.432-0.464,2.554-1.257,3.347c-0.852,0.852-2.128,1.316-3.58,1.316
		C139.029,427.651,137.501,427.148,136.146,426.142z M144.621,419.118v-0.038c0-2.283-2.032-3.754-4.083-3.754
		c-2.07,0-3.812,1.432-3.812,3.734v0.039c0,2.225,1.78,3.772,3.812,3.772C142.589,422.872,144.621,421.363,144.621,419.118z"/>
	<path d="M149.11,410.393h0.948v6.095c0.658-1.161,1.761-2.07,3.56-2.07c2.496,0,3.947,1.702,3.947,4.063v6.036h-0.948v-5.862
		c0-2.031-1.142-3.367-3.135-3.367c-1.935,0-3.424,1.471-3.424,3.521v5.708h-0.948V410.393z"/>
	<path d="M160.991,410.779h1.18v1.297h-1.18V410.779z M161.107,414.649h0.948v9.867h-0.948V414.649z"/>
	<path d="M163.971,427.593v-0.832c0.232,0.039,0.562,0.059,0.774,0.059c0.697,0,1.18-0.445,1.18-1.374v-10.796h0.948v10.738
		c0,1.548-0.832,2.282-2.109,2.282C164.493,427.67,164.261,427.651,163.971,427.593z M165.809,410.779h1.18v1.297h-1.18V410.779z"/>
	<path d="M170.607,410.393h0.948v10.583l6.114-6.326h1.258l-4.315,4.372l4.45,5.495h-1.199l-3.909-4.817l-2.399,2.418v2.399h-0.948
		V410.393z"/>
	<path d="M181.579,410.393h0.948v14.124h-0.948V410.393z"/>
	<path d="M186.261,414.649h0.948v1.761c0.638-1.025,1.528-1.993,3.289-1.993c1.722,0,2.786,0.986,3.328,2.128
		c0.639-1.103,1.703-2.128,3.561-2.128c2.341,0,3.792,1.645,3.792,4.121v5.979h-0.948v-5.862c0-2.129-1.103-3.367-2.921-3.367
		c-1.664,0-3.115,1.277-3.115,3.483v5.746h-0.948v-5.921c0-2.051-1.122-3.309-2.883-3.309s-3.154,1.548-3.154,3.541v5.688h-0.948
		V414.649z"/>
	<path d="M204.662,414.649h0.948v1.838c0.658-1.161,1.761-2.07,3.56-2.07c2.496,0,3.947,1.702,3.947,4.063v6.036h-0.948v-5.862
		c0-2.031-1.142-3.367-3.135-3.367c-1.935,0-3.424,1.471-3.424,3.521v5.708h-0.948V414.649z"/>
	<path d="M215.846,419.621v-0.038c0-2.767,2.148-5.166,5.089-5.166c2.921,0,5.05,2.36,5.05,5.127v0.039
		c0,2.767-2.148,5.166-5.089,5.166C217.975,424.749,215.846,422.389,215.846,419.621z M224.959,419.621v-0.038
		c0-2.38-1.78-4.276-4.063-4.276c-2.341,0-4.024,1.916-4.024,4.237v0.039c0,2.38,1.78,4.275,4.063,4.275
		C223.276,423.858,224.959,421.943,224.959,419.621z"/>
	<path d="M228.907,414.649h0.948v2.205c0.851-1.296,2.109-2.438,4.063-2.438c2.38,0,4.798,1.915,4.798,5.127v0.039
		c0,3.212-2.418,5.166-4.798,5.166c-1.974,0-3.25-1.122-4.063-2.36v5.224h-0.948V414.649z M237.691,419.621v-0.038
		c0-2.593-1.799-4.257-3.87-4.257c-2.051,0-4.024,1.722-4.024,4.237v0.039c0,2.534,1.974,4.237,4.024,4.237
		C235.969,423.84,237.691,422.272,237.691,419.621z"/>
	<path d="M249.901,422.311c-0.852,1.297-2.109,2.438-4.063,2.438c-2.38,0-4.799-1.916-4.799-5.128v-0.038
		c0-3.212,2.419-5.166,4.799-5.166c1.973,0,3.25,1.122,4.063,2.36v-2.128h0.948v12.963h-0.948V422.311z M249.959,419.603v-0.039
		c0-2.534-1.974-4.237-4.024-4.237c-2.148,0-3.87,1.567-3.87,4.218v0.039c0,2.593,1.799,4.257,3.87,4.257
		C247.985,423.84,249.959,422.117,249.959,419.603z"/>
	<path d="M254.448,414.649h0.948v2.805c0.774-1.761,2.418-3.037,4.373-2.96v1.045h-0.098c-2.282,0-4.275,1.722-4.275,4.934v4.044
		h-0.948V414.649z"/>
	<path d="M261.337,423.278l0.561-0.755c1.084,0.832,2.283,1.297,3.541,1.297c1.335,0,2.38-0.735,2.38-1.877v-0.039
		c0-1.16-1.238-1.586-2.612-1.974c-1.605-0.464-3.386-0.947-3.386-2.708v-0.039c0-1.587,1.335-2.729,3.251-2.729
		c1.18,0,2.515,0.426,3.502,1.084l-0.503,0.793c-0.91-0.6-1.993-0.986-3.038-0.986c-1.354,0-2.244,0.735-2.244,1.722v0.039
		c0,1.103,1.335,1.509,2.747,1.915c1.587,0.445,3.251,1.025,3.251,2.767v0.039c0,1.761-1.51,2.883-3.405,2.883
		C263.949,424.71,262.382,424.13,261.337,423.278z"/>
	<path d="M272.133,421.982v-6.463h-1.432v-0.87h1.432v-3.154h0.948v3.154h3.464v0.87h-3.464v6.365c0,1.413,0.832,1.916,1.974,1.916
		c0.484,0,0.891-0.097,1.451-0.349v0.891c-0.503,0.231-0.986,0.348-1.605,0.348C273.371,424.69,272.133,423.858,272.133,421.982z"/>
	<path d="M279.157,420.686v-6.036h0.948v5.862c0,2.031,1.142,3.366,3.135,3.366c1.935,0,3.425-1.471,3.425-3.521v-5.707h0.948v9.867
		h-0.948v-1.838c-0.658,1.161-1.761,2.07-3.561,2.07C280.608,424.749,279.157,423.046,279.157,420.686z"/>
	<path d="M290.205,414.649h1.104l3.733,8.803l3.773-8.803h1.064l-4.431,9.944h-0.813L290.205,414.649z"/>
	<path d="M301.332,414.649h1.064l2.979,8.668l2.979-8.707h0.754l2.98,8.707l2.979-8.668h1.025l-3.618,9.944h-0.813l-2.941-8.455
		l-2.96,8.455h-0.813L301.332,414.649z"/>
	<path d="M321.764,419.486l-3.889-4.837h1.181l3.327,4.179l3.328-4.179h1.142l-3.889,4.817l4.044,5.05h-1.181l-3.482-4.392
		l-3.483,4.392h-1.141L321.764,419.486z"/>
	<path d="M328.73,427.245l0.329-0.832c0.522,0.251,0.948,0.367,1.683,0.367c1.025,0,1.703-0.6,2.438-2.321l-4.74-9.81h1.103
		l4.102,8.822l3.561-8.822h1.045l-4.276,10.216c-0.87,2.07-1.877,2.805-3.289,2.805C329.93,427.67,329.389,427.535,328.73,427.245z"
		/>
	<path d="M340.089,423.975l7.12-8.475h-6.85v-0.851h8.262v0.541l-7.12,8.475h7.12v0.852h-8.532V423.975z"/>
	<path d="M70.185,441.003v-0.038c0-3.734,2.186-7.004,5.63-7.004c3.444,0,5.592,3.23,5.592,6.965v0.039
		c0,3.733-2.187,7.004-5.63,7.004S70.185,444.737,70.185,441.003z M80.361,441.003v-0.038c0-3.154-1.78-6.095-4.585-6.095
		c-2.805,0-4.547,2.902-4.547,6.056v0.039c0,3.134,1.78,6.095,4.585,6.095C78.62,447.06,80.361,444.138,80.361,441.003z"/>
	<path d="M86.032,435.141l-2.612,0.89l-0.271-0.793l3.096-1.142h0.774v13.641h-0.987V435.141z"/>
	<path d="M89.979,446.981l5.05-4.565c2.225-2.032,2.999-3.193,2.999-4.625c0-1.761-1.432-2.902-3.057-2.902
		c-1.722,0-2.844,0.891-3.966,2.516l-0.754-0.503c1.18-1.8,2.438-2.902,4.817-2.902c2.303,0,4.024,1.606,4.024,3.715v0.039
		c0,1.857-1.006,3.096-3.386,5.263l-4.141,3.753h7.662v0.968h-9.249V446.981z"/>
	<path d="M101.511,445.53l0.774-0.638c1.083,1.373,2.438,2.167,4.218,2.167c1.819,0,3.347-1.22,3.347-2.999c0-0.02,0-0.039,0-0.039
		c0-1.896-1.78-2.941-4.218-2.941h-0.735l-0.251-0.561l4.663-5.379h-7.101v-0.948h8.475v0.716l-4.585,5.244
		c2.573,0.154,4.798,1.354,4.798,3.83c0,0,0,0.02,0,0.039c0,2.36-2.07,3.947-4.412,3.947
		C104.278,447.969,102.614,446.963,101.511,445.53z"/>
	<path d="M120.879,444.428h-7.333l-0.348-0.755l7.739-9.577h0.909v9.461h2.206v0.871h-2.206v3.309h-0.967V444.428z M120.879,443.557
		v-8.01l-6.462,8.01H120.879z"/>
	<path d="M126.22,445.782l0.716-0.716c1.219,1.219,2.631,1.993,4.063,1.993c2.147,0,3.638-1.51,3.638-3.405v-0.039
		c0-1.877-1.529-3.212-3.715-3.212c-1.258,0-2.206,0.387-3.057,0.852l-0.774-0.503l0.387-6.56h7.604v0.968h-6.714l-0.329,5.069
		c0.871-0.426,1.742-0.735,2.999-0.735c2.612,0,4.644,1.664,4.644,4.082v0.039c0,2.554-1.993,4.354-4.721,4.354
		C129.122,447.969,127.4,446.981,126.22,445.782z"/>
	<path d="M139.784,446.614c-1.123-1.122-1.722-2.477-1.722-5.282v-0.039c0-4.082,2.147-7.332,5.514-7.332
		c1.548,0,2.728,0.6,3.908,1.566l-0.638,0.774c-1.045-0.929-2.07-1.432-3.347-1.432c-2.748,0-4.528,2.883-4.431,7.023
		c0.773-1.316,2.031-2.516,4.237-2.516c2.458,0,4.663,1.684,4.663,4.102v0.039c0,2.554-2.07,4.45-4.74,4.45
		C141.835,447.969,140.597,447.427,139.784,446.614z M146.923,443.557v-0.038c0-1.857-1.528-3.251-3.676-3.251
		c-2.225,0-3.772,1.684-3.772,3.348v0.039c0,1.935,1.645,3.405,3.831,3.405C145.492,447.06,146.923,445.473,146.923,443.557z"/>
	<path d="M157.933,435.16h-7.855v-0.968h8.978v0.735l-6.172,12.809h-1.103L157.933,435.16z"/>
	<path d="M160.991,444.118v-0.039c0-1.586,1.296-2.786,2.999-3.347c-1.335-0.542-2.535-1.548-2.535-3.154v-0.038
		c0-2.109,2.225-3.541,4.566-3.541c2.341,0,4.566,1.432,4.566,3.541v0.038c0,1.606-1.199,2.612-2.535,3.154
		c1.703,0.561,2.999,1.761,2.999,3.347v0.039c0,2.244-2.186,3.812-5.03,3.812S160.991,446.362,160.991,444.118z M170.007,444.157
		v-0.039c0-1.684-1.78-2.902-3.986-2.902s-3.986,1.219-3.986,2.902v0.039c0,1.528,1.49,2.863,3.986,2.863
		S170.007,445.686,170.007,444.157z M169.543,437.578v-0.038c0-1.528-1.548-2.632-3.521-2.632s-3.521,1.104-3.521,2.632v0.038
		c0,1.664,1.606,2.786,3.521,2.786S169.543,439.242,169.543,437.578z"/>
	<path d="M173.607,446.285l0.639-0.773c1.142,1.025,2.225,1.548,3.463,1.548c2.728,0,4.644-2.922,4.489-6.985
		c-0.774,1.394-2.09,2.612-4.218,2.612c-2.728,0-4.682-1.818-4.682-4.141v-0.039c0-2.495,1.935-4.546,4.76-4.546
		c1.451,0,2.631,0.561,3.444,1.373c1.045,1.045,1.703,2.573,1.703,5.282v0.039c0,4.256-2.36,7.313-5.514,7.313
		C176.006,447.969,174.729,447.233,173.607,446.285z M181.792,438.353v-0.039c0-1.915-1.606-3.443-3.851-3.443
		c-2.225,0-3.599,1.722-3.599,3.599v0.038c0,1.896,1.528,3.29,3.676,3.29C180.321,441.797,181.792,440.055,181.792,438.353z"/>
	<path d="M70.726,457.411h1.277v1.645h-1.277V457.411z M70.804,469.601l0.29-8.648h0.542l0.29,8.648v1.354h-1.122V469.601z"/>
	<path d="M75.602,469.311h1.277v1.645h-1.277V469.311z M75.68,458.766v-1.354h1.122v1.354l-0.29,8.648H75.97L75.68,458.766z"/>
	<path d="M79.685,467.356v-0.039c0-2.399,1.857-3.676,4.102-3.946l0.174-2.419h0.619l0.251,3.135l-0.097,0.097
		c-2.554,0.058-4.024,1.238-4.024,3.096v0.038c0,1.587,1.238,2.922,3.211,2.922c1.548,0,2.729-0.755,3.734-1.993l0.696,0.581
		c-1.103,1.373-2.418,2.302-4.469,2.302C81.33,471.129,79.685,469.427,79.685,467.356z M83.632,457.411h1.277v1.645h-1.277V457.411z
		"/>
	<path d="M93.191,464.28l0.097-0.097c2.554-0.059,4.024-1.238,4.024-3.096v-0.039c0-1.587-1.238-2.922-3.212-2.922
		c-1.548,0-2.728,0.755-3.734,1.993l-0.697-0.58c1.103-1.374,2.418-2.303,4.47-2.303c2.554,0,4.198,1.702,4.198,3.772v0.039
		c0,2.399-1.857,3.676-4.102,3.947l-0.174,2.418h-0.619L93.191,464.28z M93.113,469.311h1.277v1.645h-1.277V469.311z"/>
	<path d="M100.408,460.759v-0.039c0-1.818,1.2-3.463,2.999-3.463c1.78,0,2.96,1.645,2.96,3.425v0.038c0,1.819-1.2,3.464-2.999,3.464
		C101.589,464.184,100.408,462.558,100.408,460.759z M105.361,460.759v-0.039c0-1.509-0.909-2.631-1.993-2.631
		c-1.142,0-1.954,1.18-1.954,2.593v0.038c0,1.528,0.909,2.632,1.993,2.632C104.549,463.352,105.361,462.21,105.361,460.759z
		 M111.766,457.411h1.045l-9.945,13.544h-1.045L111.766,457.411z M108.264,467.686v-0.039c0-1.818,1.2-3.463,2.999-3.463
		c1.78,0,2.96,1.645,2.96,3.424v0.039c0,1.818-1.2,3.463-2.999,3.463C109.444,471.109,108.264,469.484,108.264,467.686z
		 M113.217,467.686v-0.039c0-1.509-0.909-2.631-1.993-2.631c-1.142,0-1.954,1.18-1.954,2.592v0.039c0,1.528,0.909,2.632,1.993,2.632
		C112.404,470.278,113.217,469.137,113.217,467.686z"/>
	<path d="M121.035,470.936c-1.761-0.154-3.193-0.832-4.585-2.07l0.638-0.754c1.2,1.122,2.418,1.799,3.986,1.935v-5.495
		c-2.902-0.639-4.102-1.702-4.102-3.618v-0.038c0-1.936,1.703-3.425,4.063-3.483v-1.122h0.929v1.161
		c1.49,0.116,2.592,0.657,3.734,1.587l-0.638,0.754c-1.006-0.89-2.012-1.335-3.135-1.471v5.438c2.941,0.619,4.179,1.722,4.179,3.599
		v0.038c0,2.032-1.703,3.464-4.14,3.561v1.896h-0.929V470.936z M121.073,458.282c-1.877,0.038-3.115,1.161-3.115,2.534v0.039
		c0,1.258,0.6,2.09,3.115,2.709V458.282z M125.117,467.473v-0.039c0-1.315-0.639-2.108-3.193-2.689v5.34
		C123.859,470.026,125.117,468.924,125.117,467.473z"/>
	<path d="M129.316,461.475h8.784v0.986h-8.784V461.475z M129.316,465.828h8.784v0.986h-8.784V465.828z"/>
	<path d="M141.022,460.643c0.832-0.426,1.142-0.852,1.083-1.587h-0.522v-1.645h1.277v1.432c0,1.2-0.445,1.839-1.606,2.283
		L141.022,460.643z M144.505,460.643c0.832-0.426,1.142-0.852,1.083-1.587h-0.522v-1.645h1.277v1.432c0,1.2-0.445,1.839-1.606,2.283
		L144.505,460.643z"/>
	<path d="M151.8,469.756c0-0.291,0-1.2,0-1.529c0-1.509-0.503-2.457-2.322-2.457h-0.503v-0.735h0.503
		c1.819,0,2.322-0.947,2.322-2.457c0-0.329,0-1.238,0-1.528c0-2.012,0.619-3.27,4.083-3.928l0.135,0.619
		c-2.96,0.755-3.27,1.471-3.27,3.425c0,0.387,0,1.045,0,1.451c0,1.722-0.793,2.418-2.012,2.786c1.296,0.426,2.012,1.064,2.012,2.786
		c0,0.406,0,1.063,0,1.451c0,1.954,0.31,2.67,3.27,3.425l-0.135,0.619C152.419,473.025,151.8,471.768,151.8,469.756z"/>
	<path d="M158.224,473.064c2.96-0.755,3.27-1.471,3.27-3.425c0-0.388,0-1.045,0-1.451c0-1.722,0.793-2.419,2.012-2.786
		c-1.296-0.426-2.012-1.064-2.012-2.786c0-0.406,0-1.064,0-1.451c0-1.954-0.31-2.67-3.27-3.425l0.135-0.619
		c3.463,0.658,4.083,1.916,4.083,3.928c0,0.29,0,1.199,0,1.528c0,1.51,0.503,2.457,2.322,2.457h0.503v0.735h-0.503
		c-1.819,0-2.322,0.948-2.322,2.457c0,0.329,0,1.238,0,1.529c0,2.012-0.619,3.27-4.083,3.928L158.224,473.064z"/>
	<path d="M167.782,465.402c0-3.502,1.954-6.347,5.359-8.281l0.407,0.639c-3.057,1.877-4.76,4.411-4.76,7.643
		c0,3.23,1.703,5.766,4.76,7.643l-0.407,0.639C169.736,471.748,167.782,468.904,167.782,465.402z"/>
	<path d="M175.909,473.045c3.057-1.877,4.76-4.412,4.76-7.643c0-3.231-1.703-5.766-4.76-7.643l0.406-0.639
		c3.405,1.935,5.359,4.779,5.359,8.281s-1.954,6.346-5.359,8.281L175.909,473.045z"/>
	<path d="M184.945,457.411h5.282v0.735h-4.392v14.589h4.392v0.735h-5.282V457.411z"/>
	<path d="M192.511,472.735h4.392v-14.589h-4.392v-0.735h5.282v16.06h-5.282V472.735z"/>
</g>
<g>
	<path d="M69.164,39.23h9.874v1.457h-4.116v10.704H73.28V40.688h-4.116V39.23z"/>
	<path d="M80.068,40.924V39.23h1.491v1.694H80.068z M81.559,51.392h-1.491v-8.858h1.491V51.392z"/>
	<path d="M83.674,42.533h1.406v1.253h0.034c0.356-0.508,1.033-1.507,2.643-1.507c2.354,0,3.692,1.931,3.692,4.421
		c0,2.117-0.88,4.945-3.896,4.945c-1.186,0-1.964-0.559-2.354-1.186h-0.034v4.438h-1.49V42.533z M87.519,50.358
		c1.626,0,2.388-1.474,2.388-3.421c0-1.135-0.119-3.32-2.422-3.32c-2.151,0-2.388,2.321-2.388,3.76
		C85.097,49.732,86.57,50.358,87.519,50.358z"/>
	<path d="M96.813,42.279c2.829,0,4.116,2.388,4.116,4.675s-1.287,4.675-4.116,4.675s-4.116-2.388-4.116-4.675
		S93.985,42.279,96.813,42.279z M96.813,50.341c2.134,0,2.575-2.202,2.575-3.387s-0.44-3.388-2.575-3.388
		c-2.134,0-2.574,2.202-2.574,3.388S94.68,50.341,96.813,50.341z"/>
	<path d="M109.97,50.663c0,1.271-0.017,4.455-4.116,4.455c-1.05,0-3.1-0.288-3.388-2.642h1.491c0.271,1.406,1.643,1.406,1.999,1.406
		c2.575,0,2.524-2.066,2.524-3.116v-0.373h-0.034v0.068c-0.39,0.627-1.168,1.186-2.354,1.186c-3.015,0-3.896-2.828-3.896-4.945
		c0-2.49,1.338-4.421,3.692-4.421c1.609,0,2.287,1,2.643,1.507h0.034v-1.253h1.406V50.663z M106.125,50.358
		c0.949,0,2.422-0.626,2.422-2.981c0-1.439-0.237-3.76-2.388-3.76c-2.303,0-2.422,2.185-2.422,3.32
		C103.737,48.885,104.5,50.358,106.125,50.358z"/>
	<path d="M113.557,51.392h-1.49v-8.858h1.406v1.474h0.034c0.593-1.033,1.372-1.728,2.49-1.728c0.187,0,0.271,0.017,0.39,0.051v1.542
		h-0.559c-1.389,0-2.27,1.084-2.27,2.371V51.392z"/>
	<path d="M117.282,45.227c0.067-2.117,1.473-2.947,3.658-2.947c0.711,0,3.286,0.203,3.286,2.473v5.098
		c0,0.373,0.187,0.525,0.491,0.525c0.136,0,0.322-0.034,0.491-0.068v1.084c-0.254,0.068-0.474,0.169-0.813,0.169
		c-1.321,0-1.524-0.678-1.575-1.355c-0.576,0.626-1.473,1.439-3.201,1.439c-1.626,0-2.778-1.033-2.778-2.558
		c0-0.745,0.22-2.473,2.693-2.777l2.456-0.305c0.355-0.034,0.779-0.169,0.779-1.05c0-0.932-0.677-1.44-2.083-1.44
		c-1.694,0-1.931,1.033-2.033,1.711H117.282z M122.735,46.869c-0.237,0.187-0.61,0.322-2.456,0.559
		c-0.728,0.102-1.897,0.322-1.897,1.44c0,0.965,0.491,1.541,1.609,1.541c1.389,0,2.744-0.897,2.744-2.083V46.869z"/>
	<path d="M128.592,43.77v7.622h-1.491V43.77h-1.219v-1.237h1.219v-1.524c0-1.338,0.847-1.948,2.304-1.948
		c0.22,0,0.44,0.017,0.677,0.034v1.338c-0.186-0.017-0.423-0.034-0.61-0.034c-0.644,0-0.88,0.322-0.88,1.033v1.101h1.49v1.237
		H128.592z"/>
	<path d="M131.232,40.924V39.23h1.491v1.694H131.232z M132.723,51.392h-1.491v-8.858h1.491V51.392z"/>
	<path d="M134.907,45.227c0.067-2.117,1.473-2.947,3.658-2.947c0.711,0,3.286,0.203,3.286,2.473v5.098
		c0,0.373,0.187,0.525,0.491,0.525c0.136,0,0.322-0.034,0.491-0.068v1.084c-0.254,0.068-0.474,0.169-0.813,0.169
		c-1.321,0-1.524-0.678-1.575-1.355c-0.576,0.626-1.473,1.439-3.201,1.439c-1.626,0-2.778-1.033-2.778-2.558
		c0-0.745,0.22-2.473,2.693-2.777l2.456-0.305c0.355-0.034,0.779-0.169,0.779-1.05c0-0.932-0.677-1.44-2.083-1.44
		c-1.694,0-1.931,1.033-2.033,1.711H134.907z M140.36,46.869c-0.237,0.187-0.61,0.322-2.456,0.559
		c-0.728,0.102-1.897,0.322-1.897,1.44c0,0.965,0.491,1.541,1.609,1.541c1.389,0,2.744-0.897,2.744-2.083V46.869z"/>
	<path d="M151.076,51.392h-1.643V39.23h5.471c2.253,0,3.608,1.457,3.608,3.421c0,1.694-0.966,3.608-3.608,3.608h-3.828V51.392z
		 M151.076,44.854h3.269c1.474,0,2.473-0.542,2.473-2.185c0-1.542-1.05-2.033-2.405-2.033h-3.336V44.854z"/>
	<path d="M161.133,51.392h-1.49v-8.858h1.406v1.474h0.034c0.593-1.033,1.372-1.728,2.49-1.728c0.187,0,0.271,0.017,0.39,0.051v1.542
		h-0.559c-1.389,0-2.27,1.084-2.27,2.371V51.392z"/>
	<path d="M165.365,40.924V39.23h1.491v1.694H165.365z M166.855,51.392h-1.491v-8.858h1.491V51.392z"/>
	<path d="M176.305,51.392h-1.491v-5.454c0-1.542-0.44-2.321-1.897-2.321c-0.847,0-2.337,0.542-2.337,2.947v4.827h-1.49v-8.858h1.406
		v1.253h0.034c0.322-0.474,1.152-1.507,2.676-1.507c1.372,0,3.1,0.559,3.1,3.083V51.392z"/>
	<path d="M184.041,45.514c-0.186-1.186-0.847-1.897-2.1-1.897c-1.846,0-2.439,1.762-2.439,3.337c0,1.524,0.373,3.404,2.422,3.404
		c0.999,0,1.863-0.745,2.117-2.1h1.44c-0.152,1.406-1.016,3.387-3.608,3.387c-2.49,0-3.963-1.88-3.963-4.438
		c0-2.744,1.321-4.929,4.251-4.929c2.32,0,3.201,1.694,3.32,3.235H184.041z"/>
	<path d="M187.002,40.924V39.23h1.491v1.694H187.002z M188.493,51.392h-1.491v-8.858h1.491V51.392z"/>
	<path d="M190.608,42.533h1.406v1.253h0.034c0.356-0.508,1.033-1.507,2.643-1.507c2.354,0,3.692,1.931,3.692,4.421
		c0,2.117-0.88,4.945-3.896,4.945c-1.186,0-1.964-0.559-2.354-1.186h-0.034v4.438h-1.49V42.533z M194.453,50.358
		c1.626,0,2.388-1.474,2.388-3.421c0-1.135-0.119-3.32-2.422-3.32c-2.151,0-2.388,2.321-2.388,3.76
		C192.031,49.732,193.504,50.358,194.453,50.358z"/>
	<path d="M200.09,45.227c0.067-2.117,1.473-2.947,3.658-2.947c0.711,0,3.286,0.203,3.286,2.473v5.098
		c0,0.373,0.186,0.525,0.491,0.525c0.136,0,0.322-0.034,0.491-0.068v1.084c-0.254,0.068-0.474,0.169-0.813,0.169
		c-1.321,0-1.524-0.678-1.575-1.355c-0.576,0.626-1.473,1.439-3.201,1.439c-1.626,0-2.777-1.033-2.777-2.558
		c0-0.745,0.22-2.473,2.693-2.777l2.456-0.305c0.355-0.034,0.779-0.169,0.779-1.05c0-0.932-0.677-1.44-2.083-1.44
		c-1.694,0-1.931,1.033-2.033,1.711H200.09z M205.543,46.869c-0.237,0.187-0.61,0.322-2.456,0.559
		c-0.728,0.102-1.897,0.322-1.897,1.44c0,0.965,0.491,1.541,1.609,1.541c1.389,0,2.744-0.897,2.744-2.083V46.869z"/>
	<path d="M211.079,51.392h-1.491V39.23h1.491V51.392z"/>
</g>
<g>
	<path d="M70.465,99.341v-0.058c0-5.775,4.499-10.506,10.651-10.506c3.657,0,5.862,0.987,7.981,2.786l-2.815,3.396
		c-1.567-1.306-2.96-2.061-5.311-2.061c-3.25,0-5.833,2.873-5.833,6.327v0.058c0,3.715,2.554,6.443,6.152,6.443
		c1.625,0,3.077-0.406,4.208-1.219v-2.902H81v-3.86h8.823v8.823c-2.089,1.77-4.963,3.221-8.678,3.221
		C74.818,109.789,70.465,105.348,70.465,99.341z"/>
	<path d="M92.9,101.75v-0.058c0-4.469,3.599-8.097,8.446-8.097c4.817,0,8.387,3.57,8.387,8.039v0.058
		c0,4.47-3.599,8.097-8.445,8.097C96.47,109.789,92.9,106.219,92.9,101.75z M105.38,101.75v-0.058c0-2.292-1.654-4.295-4.092-4.295
		c-2.525,0-4.034,1.945-4.034,4.237v0.058c0,2.293,1.654,4.295,4.092,4.295C103.871,105.987,105.38,104.042,105.38,101.75z"/>
	<path d="M113.653,105.029v-7.372h-1.857v-3.772h1.857v-3.976h4.411v3.976h3.657v3.772h-3.657v6.646
		c0,1.016,0.436,1.509,1.422,1.509c0.813,0,1.538-0.203,2.176-0.551v3.541c-0.929,0.552-2.002,0.9-3.482,0.9
		C115.481,109.702,113.653,108.628,113.653,105.029z"/>
	<path d="M124.972,88.254h4.411v7.836c1.016-1.306,2.322-2.496,4.557-2.496c3.337,0,5.282,2.206,5.282,5.775v10.071h-4.412v-8.678
		c0-2.089-0.987-3.163-2.67-3.163c-1.684,0-2.757,1.074-2.757,3.163v8.678h-4.411V88.254z"/>
	<path d="M142.125,104.971v-0.058c0-3.396,2.583-4.963,6.269-4.963c1.567,0,2.699,0.261,3.802,0.639v-0.261
		c0-1.829-1.132-2.844-3.338-2.844c-1.683,0-2.873,0.319-4.295,0.841l-1.103-3.366c1.712-0.755,3.396-1.248,6.037-1.248
		c2.409,0,4.15,0.638,5.253,1.741c1.161,1.161,1.683,2.873,1.683,4.963v9.026h-4.266v-1.683c-1.074,1.19-2.554,1.973-4.702,1.973
		C144.534,109.73,142.125,108.047,142.125,104.971z M152.253,103.955v-0.783c-0.754-0.349-1.741-0.581-2.815-0.581
		c-1.886,0-3.047,0.754-3.047,2.147v0.058c0,1.19,0.987,1.886,2.409,1.886C150.86,106.683,152.253,105.551,152.253,103.955z"/>
	<path d="M160.236,93.885h4.411v2.206c1.016-1.306,2.351-2.496,4.585-2.496c2.032,0,3.57,0.9,4.382,2.467
		c1.364-1.596,2.989-2.467,5.108-2.467c3.28,0,5.253,1.974,5.253,5.717v10.129h-4.412v-8.678c0-2.089-0.929-3.163-2.583-3.163
		s-2.67,1.074-2.67,3.163v8.678H169.9v-8.678c0-2.089-0.929-3.163-2.583-3.163c-1.654,0-2.67,1.074-2.67,3.163v8.678h-4.411V93.885z
		"/>
	<path d="M196.98,89.125h9.432c2.322,0,4.15,0.638,5.311,1.799c0.929,0.929,1.393,2.061,1.393,3.454v0.058
		c0,2.292-1.219,3.57-2.67,4.382c2.351,0.899,3.802,2.264,3.802,4.992v0.058c0,3.715-3.018,5.572-7.604,5.572h-9.664V89.125z
		 M205.455,97.338c1.973,0,3.221-0.639,3.221-2.148v-0.058c0-1.335-1.045-2.089-2.931-2.089h-4.412v4.295H205.455z M206.645,105.522
		c1.974,0,3.164-0.697,3.164-2.206v-0.058c0-1.364-1.016-2.206-3.309-2.206h-5.166v4.469H206.645z"/>
	<path d="M216.716,101.75v-0.058c0-4.469,3.599-8.097,8.446-8.097c4.817,0,8.387,3.57,8.387,8.039v0.058
		c0,4.47-3.599,8.097-8.445,8.097C220.286,109.789,216.716,106.219,216.716,101.75z M229.196,101.75v-0.058
		c0-2.292-1.654-4.295-4.092-4.295c-2.525,0-4.034,1.945-4.034,4.237v0.058c0,2.293,1.654,4.295,4.092,4.295
		C227.687,105.987,229.196,104.042,229.196,101.75z"/>
	<path d="M236.946,88.254h4.411v21.186h-4.411V88.254z"/>
	<path d="M244.811,101.691v-0.058c0-5.195,3.396-8.039,7.082-8.039c2.351,0,3.802,1.074,4.847,2.322v-7.662h4.411v21.186h-4.411
		v-2.235c-1.074,1.451-2.554,2.525-4.847,2.525C248.265,109.73,244.811,106.887,244.811,101.691z M256.797,101.691v-0.058
		c0-2.583-1.712-4.295-3.773-4.295s-3.802,1.683-3.802,4.295v0.058c0,2.583,1.741,4.295,3.802,4.295
		S256.797,104.274,256.797,101.691z"/>
</g>
<g>
	<path d="M75.195,121.599h2.748l5.805,13.641h-3.115l-1.238-3.038h-5.727l-1.238,3.038h-3.038L75.195,121.599z M78.33,129.571
		l-1.799-4.392l-1.799,4.392H78.33z"/>
	<path d="M85.838,121.696h6.289c1.548,0,2.767,0.425,3.541,1.199c0.619,0.619,0.929,1.374,0.929,2.303v0.039
		c0,1.528-0.813,2.38-1.78,2.921c1.567,0.6,2.535,1.509,2.535,3.328v0.039c0,2.477-2.012,3.715-5.069,3.715h-6.443V121.696z
		 M91.488,127.171c1.316,0,2.147-0.425,2.147-1.432v-0.039c0-0.89-0.696-1.393-1.954-1.393H88.74v2.863H91.488z M92.281,132.628
		c1.315,0,2.109-0.464,2.109-1.471v-0.039c0-0.91-0.677-1.471-2.206-1.471H88.74v2.98H92.281z"/>
	<path d="M99.208,128.507v-0.039c0-3.85,2.902-7.004,7.062-7.004c2.554,0,4.083,0.852,5.34,2.09l-1.896,2.186
		c-1.045-0.948-2.109-1.528-3.463-1.528c-2.283,0-3.928,1.896-3.928,4.218v0.039c0,2.322,1.606,4.257,3.928,4.257
		c1.548,0,2.496-0.619,3.56-1.587l1.896,1.916c-1.393,1.49-2.941,2.418-5.553,2.418C102.169,135.472,99.208,132.396,99.208,128.507z
		"/>
	<path d="M114.088,121.696h5.282c4.257,0,7.198,2.921,7.198,6.733v0.039c0,3.812-2.941,6.772-7.198,6.772h-5.282V121.696z
		 M119.37,132.55c2.438,0,4.083-1.645,4.083-4.043v-0.039c0-2.399-1.645-4.083-4.083-4.083h-2.302v8.165H119.37z"/>
	<path d="M129.22,121.696h10.216v2.65h-7.256v2.748h6.385v2.651h-6.385v2.844h7.353v2.651H129.22V121.696z"/>
	<path d="M142.184,121.696h10.313v2.708h-7.333v2.883h6.462v2.709h-6.462v5.243h-2.979V121.696z"/>
	<path d="M154.277,128.507v-0.039c0-3.85,2.999-7.004,7.101-7.004c2.438,0,3.908,0.658,5.32,1.857l-1.876,2.264
		c-1.045-0.871-1.974-1.374-3.541-1.374c-2.167,0-3.889,1.916-3.889,4.218v0.039c0,2.477,1.703,4.295,4.102,4.295
		c1.083,0,2.051-0.271,2.806-0.813v-1.935H161.3v-2.573h5.882v5.882c-1.393,1.18-3.309,2.147-5.785,2.147
		C157.179,135.472,154.277,132.512,154.277,128.507z"/>
	<path d="M170.047,121.696h2.979v5.359h5.495v-5.359h2.98v13.543h-2.98v-5.437h-5.495v5.437h-2.979V121.696z"/>
	<path d="M184.888,121.696h2.979v13.543h-2.979V121.696z"/>
	<path d="M189.899,133.402l1.876-2.09c0.774,0.852,1.529,1.354,2.477,1.354c1.123,0,1.819-0.677,1.819-2.245v-8.726h3.057v8.861
		c0,1.606-0.464,2.805-1.277,3.618c-0.832,0.832-2.051,1.257-3.521,1.257C192.221,135.433,190.828,134.504,189.899,133.402z"/>
	<path d="M202.167,121.696h2.979v5.92l5.495-5.92h3.599l-5.515,5.746l5.766,7.797h-3.58l-4.199-5.766l-1.567,1.625v4.141h-2.979
		V121.696z"/>
	<path d="M216.292,121.696h2.979v10.835h6.752v2.708h-9.732V121.696z"/>
	<path d="M228.269,121.696h3.212l3.56,5.727l3.56-5.727h3.212v13.543h-2.96v-8.842l-3.812,5.785h-0.077l-3.773-5.727v8.784h-2.922
		V121.696z"/>
	<path d="M245.064,121.696h2.747l6.346,8.339v-8.339h2.941v13.543h-2.535l-6.559-8.61v8.61h-2.94V121.696z"/>
	<path d="M259.75,128.507v-0.039c0-3.85,3.038-7.004,7.217-7.004c4.18,0,7.179,3.115,7.179,6.965v0.039
		c0,3.851-3.038,7.004-7.218,7.004C262.749,135.472,259.75,132.357,259.75,128.507z M271.03,128.507v-0.039
		c0-2.322-1.703-4.256-4.103-4.256c-2.398,0-4.063,1.896-4.063,4.218v0.039c0,2.322,1.702,4.257,4.102,4.257
		S271.03,130.828,271.03,128.507z"/>
	<path d="M276.797,121.696h5.534c3.23,0,5.185,1.915,5.185,4.682v0.039c0,3.134-2.438,4.76-5.476,4.76h-2.264v4.063h-2.979V121.696z
		 M282.137,128.526c1.49,0,2.361-0.89,2.361-2.051v-0.039c0-1.335-0.929-2.051-2.419-2.051h-2.303v4.141H282.137z"/>
	<path d="M300.326,134.311c-1.142,0.735-2.516,1.161-4.025,1.161c-4.179,0-7.178-3.115-7.178-6.965v-0.039
		c0-3.85,3.038-7.004,7.217-7.004c4.18,0,7.179,3.115,7.179,6.965v0.039c0,1.413-0.426,2.767-1.2,3.889l1.394,1.18l-1.896,2.109
		L300.326,134.311z M298.12,132.357l-2.206-1.877l1.896-2.128l2.225,2.013c0.252-0.562,0.368-1.181,0.368-1.857v-0.039
		c0-2.322-1.703-4.256-4.103-4.256c-2.398,0-4.063,1.896-4.063,4.218v0.039c0,2.322,1.702,4.257,4.102,4.257
		C296.998,132.725,297.598,132.589,298.12,132.357z"/>
	<path d="M306.169,121.696h6.191c1.723,0,3.058,0.483,3.947,1.374c0.755,0.754,1.161,1.819,1.161,3.096v0.039
		c0,2.187-1.181,3.56-2.902,4.199l3.309,4.837h-3.482l-2.902-4.334h-0.039h-2.303v4.334h-2.979V121.696z M312.167,128.274
		c1.451,0,2.283-0.774,2.283-1.916v-0.039c0-1.277-0.89-1.935-2.341-1.935h-2.961v3.889H312.167z"/>
	<path d="M319.23,133.266l1.761-2.109c1.219,1.006,2.496,1.645,4.044,1.645c1.219,0,1.954-0.483,1.954-1.277v-0.039
		c0-0.755-0.464-1.142-2.728-1.722c-2.729-0.696-4.489-1.451-4.489-4.141v-0.039c0-2.457,1.974-4.083,4.74-4.083
		c1.974,0,3.657,0.619,5.03,1.722l-1.548,2.244c-1.199-0.832-2.38-1.335-3.521-1.335s-1.741,0.522-1.741,1.18v0.039
		c0,0.89,0.581,1.18,2.922,1.78c2.747,0.716,4.295,1.703,4.295,4.063v0.039c0,2.689-2.051,4.198-4.972,4.198
		C322.926,135.433,320.855,134.717,319.23,133.266z"/>
	<path d="M335.407,124.443h-4.121v-2.747h11.222v2.747h-4.121v10.796h-2.979V124.443z"/>
	<path d="M344.578,129.436v-7.739h2.979v7.662c0,2.206,1.104,3.347,2.922,3.347c1.819,0,2.922-1.103,2.922-3.25v-7.758h2.979v7.642
		c0,4.102-2.303,6.114-5.939,6.114C346.804,135.453,344.578,133.421,344.578,129.436z"/>
	<path d="M358.258,121.696h3.29l3.54,9.539l3.541-9.539h3.212l-5.476,13.64h-2.632L358.258,121.696z"/>
	<path d="M372.693,121.696h3.192l2.806,9.171l3.038-9.21h2.554l3.038,9.21l2.805-9.171h3.115l-4.624,13.64h-2.593l-3.057-8.861
		l-3.058,8.861h-2.592L372.693,121.696z"/>
	<path d="M398.854,128.352l-4.527-6.655h3.483l2.844,4.392l2.863-4.392h3.386l-4.527,6.617l4.722,6.927h-3.483l-3.037-4.644
		l-3.058,4.644h-3.386L398.854,128.352z"/>
	<path d="M412.553,129.899l-5.204-8.203h3.482l3.231,5.437l3.289-5.437h3.386l-5.205,8.146v5.398h-2.979V129.899z"/>
	<path d="M421.996,132.976l7.449-8.668h-7.217v-2.612h11.048v2.264l-7.449,8.668h7.449v2.612h-11.28V132.976z"/>
	<path d="M69.623,155.48v-0.039c0-2.264,1.722-3.309,4.18-3.309c1.044,0,1.799,0.174,2.534,0.425v-0.174
		c0-1.219-0.754-1.896-2.225-1.896c-1.123,0-1.916,0.212-2.864,0.561l-0.735-2.245c1.142-0.503,2.264-0.832,4.024-0.832
		c1.606,0,2.767,0.426,3.502,1.161c0.774,0.774,1.123,1.916,1.123,3.309v6.017h-2.844v-1.122c-0.716,0.793-1.703,1.315-3.134,1.315
		C71.229,158.653,69.623,157.531,69.623,155.48z M76.376,154.803v-0.522c-0.503-0.232-1.161-0.387-1.877-0.387
		c-1.258,0-2.032,0.503-2.032,1.432v0.039c0,0.793,0.658,1.258,1.606,1.258C75.447,156.622,76.376,155.867,76.376,154.803z"/>
	<path d="M84.639,157.105v1.354h-2.941v-14.124h2.941v5.243c0.716-0.967,1.702-1.683,3.231-1.683c2.418,0,4.721,1.896,4.721,5.359
		v0.039c0,3.463-2.264,5.359-4.721,5.359C86.302,158.653,85.335,157.937,84.639,157.105z M89.649,153.293v-0.039
		c0-1.722-1.161-2.864-2.534-2.864c-1.374,0-2.516,1.142-2.516,2.864v0.039c0,1.722,1.142,2.864,2.516,2.864
		C88.489,156.157,89.649,155.035,89.649,153.293z"/>
	<path d="M94.255,153.332v-0.039c0-2.96,2.264-5.398,5.437-5.398c1.954,0,3.173,0.658,4.141,1.741l-1.799,1.935
		c-0.658-0.696-1.316-1.141-2.361-1.141c-1.47,0-2.515,1.296-2.515,2.825v0.039c0,1.586,1.025,2.864,2.631,2.864
		c0.987,0,1.664-0.426,2.38-1.103l1.722,1.741c-1.006,1.103-2.167,1.896-4.237,1.896C96.538,158.691,94.255,156.292,94.255,153.332z
		"/>
	<path d="M105.148,153.293v-0.039c0-3.463,2.264-5.359,4.721-5.359c1.567,0,2.535,0.716,3.231,1.548v-5.108h2.941v14.124h-2.941
		v-1.49c-0.716,0.967-1.703,1.683-3.231,1.683C107.451,158.653,105.148,156.757,105.148,153.293z M113.14,153.293v-0.039
		c0-1.722-1.142-2.864-2.516-2.864c-1.374,0-2.534,1.123-2.534,2.864v0.039c0,1.722,1.161,2.864,2.534,2.864
		C111.998,156.157,113.14,155.016,113.14,153.293z"/>
	<path d="M118.171,153.332v-0.039c0-2.96,2.109-5.398,5.127-5.398c3.463,0,5.05,2.689,5.05,5.63c0,0.232-0.02,0.503-0.039,0.774
		h-7.217c0.29,1.335,1.219,2.031,2.534,2.031c0.987,0,1.703-0.31,2.516-1.064l1.683,1.49c-0.967,1.2-2.36,1.935-4.237,1.935
		C120.474,158.691,118.171,156.505,118.171,153.332z M125.484,152.461c-0.174-1.315-0.948-2.206-2.186-2.206
		c-1.219,0-2.012,0.871-2.245,2.206H125.484z"/>
	<path d="M131.038,150.604h-1.219v-2.418h1.219v-0.658c0-1.142,0.29-1.974,0.832-2.515c0.542-0.542,1.335-0.813,2.38-0.813
		c0.929,0,1.548,0.116,2.089,0.291v2.438c-0.426-0.154-0.832-0.251-1.335-0.251c-0.677,0-1.064,0.349-1.064,1.123v0.406h2.379v2.399
		h-2.341v7.855h-2.941V150.604z"/>
	<path d="M137.791,160.51l1.006-2.206c1.064,0.6,2.128,0.948,3.502,0.948c2.012,0,2.96-0.968,2.96-2.825v-0.503
		c-0.871,1.045-1.819,1.684-3.386,1.684c-2.418,0-4.605-1.761-4.605-4.837v-0.039c0-3.096,2.225-4.837,4.605-4.837
		c1.606,0,2.554,0.677,3.347,1.548v-1.354h2.941v8.029c0,1.857-0.445,3.212-1.315,4.083c-0.967,0.967-2.458,1.393-4.469,1.393
		C140.693,161.594,139.107,161.207,137.791,160.51z M145.26,152.771v-0.039c0-1.413-1.103-2.399-2.535-2.399
		c-1.432,0-2.515,0.987-2.515,2.399v0.039c0,1.432,1.083,2.399,2.515,2.399C144.157,155.17,145.26,154.184,145.26,152.771z"/>
	<path d="M150.794,144.335h2.94v5.224c0.677-0.871,1.548-1.664,3.038-1.664c2.225,0,3.521,1.47,3.521,3.85v6.714h-2.941v-5.785
		c0-1.393-0.658-2.109-1.78-2.109s-1.838,0.716-1.838,2.109v5.785h-2.94V144.335z"/>
	<path d="M162.906,144.335h3.096v2.612h-3.096V144.335z M162.984,148.089h2.941v10.371h-2.941V148.089z"/>
	<path d="M167.163,161.497v-2.302c0.232,0.039,0.406,0.058,0.619,0.058c0.619,0,1.045-0.329,1.045-1.2v-9.964h2.941v10.196
		c0,2.283-1.161,3.328-3.328,3.328C167.898,161.613,167.569,161.575,167.163,161.497z M168.75,144.335h3.096v2.612h-3.096V144.335z"
		/>
	<path d="M174.535,144.335h2.94v7.526l3.444-3.773h3.521l-3.947,4.083l4.083,6.288h-3.367l-2.708-4.237l-1.026,1.083v3.154h-2.94
		V144.335z"/>
	<path d="M186.125,144.335h2.941v14.124h-2.941V144.335z"/>
	<path d="M191.833,148.089h2.941v1.471c0.677-0.871,1.567-1.664,3.057-1.664c1.354,0,2.38,0.6,2.922,1.645
		c0.909-1.064,1.993-1.645,3.405-1.645c2.186,0,3.502,1.315,3.502,3.812v6.752h-2.941v-5.785c0-1.393-0.619-2.109-1.722-2.109
		c-1.103,0-1.78,0.716-1.78,2.109v5.785h-2.941v-5.785c0-1.393-0.619-2.109-1.722-2.109s-1.78,0.716-1.78,2.109v5.785h-2.941
		V148.089z"/>
	<path d="M210.215,148.089h2.941v1.471c0.677-0.871,1.548-1.664,3.038-1.664c2.225,0,3.521,1.47,3.521,3.85v6.714h-2.941v-5.785
		c0-1.393-0.658-2.109-1.78-2.109s-1.838,0.716-1.838,2.109v5.785h-2.941V148.089z"/>
	<path d="M221.767,153.332v-0.039c0-2.979,2.399-5.398,5.63-5.398c3.212,0,5.592,2.38,5.592,5.359v0.039
		c0,2.979-2.399,5.398-5.63,5.398C224.146,158.691,221.767,156.312,221.767,153.332z M230.086,153.332v-0.039
		c0-1.528-1.103-2.863-2.728-2.863c-1.684,0-2.689,1.296-2.689,2.825v0.039c0,1.529,1.103,2.864,2.728,2.864
		C229.08,156.157,230.086,154.861,230.086,153.332z"/>
	<path d="M235.117,148.089h2.941v1.49c0.716-0.967,1.702-1.683,3.231-1.683c2.418,0,4.721,1.896,4.721,5.359v0.039
		c0,3.463-2.264,5.359-4.721,5.359c-1.567,0-2.535-0.716-3.231-1.548v4.45h-2.941V148.089z M243.069,153.293v-0.039
		c0-1.722-1.161-2.864-2.534-2.864c-1.374,0-2.516,1.142-2.516,2.864v0.039c0,1.722,1.142,2.864,2.516,2.864
		C241.909,156.157,243.069,155.035,243.069,153.293z"/>
	<path d="M255.666,156.97c-0.716,0.967-1.703,1.683-3.231,1.683c-2.418,0-4.721-1.896-4.721-5.359v-0.039
		c0-3.463,2.264-5.359,4.721-5.359c1.567,0,2.535,0.716,3.231,1.548v-1.354h2.941v13.466h-2.941V156.97z M255.705,153.293v-0.039
		c0-1.722-1.142-2.864-2.516-2.864c-1.374,0-2.535,1.123-2.535,2.864v0.039c0,1.722,1.161,2.864,2.535,2.864
		C254.563,156.157,255.705,155.016,255.705,153.293z"/>
	<path d="M261.238,148.089h2.941v2.09c0.6-1.432,1.567-2.361,3.309-2.283v3.076h-0.155c-1.954,0-3.153,1.18-3.153,3.657v3.831
		h-2.941V148.089z"/>
	<path d="M268.515,157.086l1.258-1.935c1.122,0.813,2.303,1.238,3.27,1.238c0.852,0,1.238-0.31,1.238-0.774v-0.039
		c0-0.639-1.006-0.852-2.147-1.2c-1.451-0.426-3.096-1.103-3.096-3.115v-0.039c0-2.109,1.703-3.289,3.792-3.289
		c1.316,0,2.748,0.445,3.87,1.2l-1.122,2.031c-1.025-0.6-2.051-0.967-2.806-0.967c-0.716,0-1.084,0.31-1.084,0.716v0.039
		c0,0.581,0.987,0.852,2.109,1.238c1.451,0.484,3.135,1.181,3.135,3.077v0.039c0,2.303-1.723,3.347-3.967,3.347
		C271.514,158.653,269.889,158.169,268.515,157.086z"/>
	<path d="M279.331,155.519v-4.915h-1.238v-2.515h1.238v-2.651h2.94v2.651h2.438v2.515h-2.438v4.431c0,0.677,0.29,1.006,0.948,1.006
		c0.542,0,1.025-0.136,1.451-0.368v2.36c-0.619,0.368-1.335,0.6-2.322,0.6C280.55,158.634,279.331,157.918,279.331,155.519z"/>
	<path d="M286.8,154.803v-6.714h2.94v5.785c0,1.393,0.658,2.109,1.78,2.109s1.838-0.716,1.838-2.109v-5.785h2.941v10.371h-2.941
		v-1.47c-0.677,0.871-1.548,1.664-3.037,1.664C288.096,158.653,286.8,157.183,286.8,154.803z"/>
	<path d="M298.003,148.089h3.115l2.322,6.946l2.341-6.946h3.057l-4.082,10.448h-2.67L298.003,148.089z"/>
	<path d="M309.4,148.089h2.979l1.663,6.288l1.955-6.327h2.534l1.974,6.346l1.702-6.308h2.922l-3.231,10.448h-2.65l-1.993-6.366
		l-2.031,6.366h-2.631L309.4,148.089z"/>
	<path d="M329.483,153.197l-3.502-5.108h3.154l1.935,3.019l1.954-3.019h3.076l-3.502,5.05l3.657,5.321h-3.154l-2.089-3.231
		l-2.09,3.231h-3.076L329.483,153.197z"/>
	<path d="M337.689,160.897l0.986-2.128c0.387,0.232,0.871,0.406,1.258,0.406c0.503,0,0.773-0.155,1.025-0.677l-4.063-10.409h3.115
		l2.36,7.062l2.264-7.062h3.058l-3.986,10.622c-0.793,2.109-1.645,2.902-3.405,2.902
		C339.237,161.613,338.443,161.342,337.689,160.897z"/>
	<path d="M348.989,156.389l5.359-5.92h-5.186v-2.38h8.842v2.07l-5.379,5.92h5.379v2.38h-9.016V156.389z"/>
	<path d="M69.972,174.945v-0.039c0-3.928,2.438-7.004,6.037-7.004c3.579,0,5.998,3.038,5.998,6.965v0.039
		c0,3.928-2.418,7.004-6.036,7.004C72.352,181.911,69.972,178.873,69.972,174.945z M78.949,174.945v-0.039
		c0-2.457-1.2-4.314-2.979-4.314c-1.78,0-2.941,1.799-2.941,4.276v0.039c0,2.477,1.181,4.315,2.98,4.315
		S78.949,177.403,78.949,174.945z"/>
	<path d="M86.399,171.057l-2.36,0.581l-0.619-2.438l3.889-1.161h2.031v13.641h-2.941V171.057z"/>
	<path d="M92.069,179.318l4.508-3.696c1.684-1.393,2.341-2.128,2.341-3.25c0-1.142-0.755-1.761-1.819-1.761
		c-1.045,0-1.761,0.581-2.767,1.819l-2.09-1.683c1.335-1.819,2.631-2.806,5.05-2.806c2.806,0,4.663,1.645,4.663,4.179v0.039
		c0,2.264-1.161,3.386-3.56,5.244l-2.206,1.703h5.901v2.573H92.069V179.318z"/>
	<path d="M103.911,179.57l2.051-1.954c0.929,1.044,1.896,1.625,3.27,1.625c1.122,0,1.915-0.638,1.915-1.645v-0.039
		c0-1.103-0.986-1.722-2.65-1.722h-1.238l-0.464-1.896l3.231-3.25h-5.321v-2.554h9.152v2.245l-3.425,3.27
		c1.838,0.31,3.638,1.277,3.638,3.792v0.039c0,2.554-1.857,4.431-4.876,4.431C106.755,181.911,105.071,180.943,103.911,179.57z"/>
	<path d="M122.892,178.757h-6.617l-0.484-2.109l7.43-8.61h2.516v8.301h1.818v2.418h-1.818v2.921h-2.844V178.757z M122.892,176.339
		v-4.218l-3.599,4.218H122.892z"/>
	<path d="M129.355,179.879l1.799-2.148c1.025,0.929,2.032,1.471,3.231,1.471c1.393,0,2.264-0.677,2.264-1.877v-0.039
		c0-1.161-0.987-1.838-2.399-1.838c-0.852,0-1.625,0.232-2.264,0.503l-1.722-1.142l0.387-6.675h8.319v2.612h-5.766l-0.155,2.341
		c0.542-0.135,1.025-0.232,1.78-0.232c2.631,0,4.74,1.277,4.74,4.334v0.039c0,2.864-2.032,4.683-5.146,4.683
		C132.257,181.911,130.67,181.137,129.355,179.879z"/>
	<path d="M143.364,180.46c-0.987-0.987-1.606-2.438-1.606-5.127v-0.039c0-4.179,1.896-7.391,5.94-7.391
		c1.838,0,3.038,0.542,4.237,1.49l-1.567,2.303c-0.89-0.677-1.606-1.084-2.767-1.084c-1.683,0-2.534,1.354-2.728,3.135
		c0.677-0.445,1.471-0.871,2.806-0.871c2.689,0,4.76,1.49,4.76,4.314v0.039c0,2.767-2.225,4.683-5.166,4.683
		C145.511,181.911,144.312,181.408,143.364,180.46z M149.478,177.364v-0.039c0-1.142-0.89-1.973-2.36-1.973
		c-1.471,0-2.322,0.813-2.322,1.954v0.039c0,1.142,0.89,2.012,2.36,2.012C148.626,179.357,149.478,178.525,149.478,177.364z"/>
	<path d="M160.913,170.708h-6.365v-2.574h9.751v2.245l-6.075,11.299h-3.366L160.913,170.708z"/>
	<path d="M165.886,177.964v-0.039c0-1.645,0.754-2.612,2.187-3.27c-1.045-0.639-1.722-1.509-1.722-2.96v-0.039
		c0-2.07,1.896-3.715,4.76-3.715c2.863,0,4.76,1.625,4.76,3.715v0.039c0,1.451-0.677,2.321-1.722,2.96
		c1.374,0.716,2.187,1.586,2.187,3.192v0.039c0,2.515-2.225,3.985-5.224,3.985S165.886,180.324,165.886,177.964z M173.451,177.731
		v-0.039c0-1.044-0.986-1.664-2.341-1.664s-2.341,0.619-2.341,1.664v0.039c0,0.929,0.871,1.684,2.341,1.684
		C172.581,179.415,173.451,178.68,173.451,177.731z M173.045,172.024v-0.039c0-0.832-0.716-1.586-1.935-1.586
		s-1.935,0.735-1.935,1.567v0.039c0,0.948,0.755,1.664,1.935,1.664S173.045,172.972,173.045,172.024z"/>
	<path d="M178.502,180.305l1.567-2.264c0.986,0.793,1.818,1.161,2.96,1.161c1.664,0,2.554-1.258,2.748-3.076
		c-0.658,0.561-1.567,0.929-2.748,0.929c-2.941,0-4.837-1.625-4.837-4.373v-0.039c0-2.728,2.109-4.74,5.166-4.74
		c1.819,0,2.883,0.445,3.908,1.47c0.967,0.968,1.606,2.438,1.606,5.108v0.039c0,4.392-2.07,7.391-5.92,7.391
		C180.979,181.911,179.644,181.253,178.502,180.305z M185.835,172.566v-0.039c0-1.199-0.89-2.07-2.38-2.07
		c-1.471,0-2.302,0.851-2.302,2.051v0.039c0,1.2,0.89,2.032,2.36,2.032C184.983,174.578,185.835,173.727,185.835,172.566z"/>
	<path d="M70.339,204.512l0.909-8.552h1.625l0.909,8.552v0.387h-3.444V204.512z M70.494,191.354h3.134v3.096h-3.134V191.354z"/>
	<path d="M76.608,191.742v-0.387h3.444v0.387l-0.91,8.552h-1.625L76.608,191.742z M76.763,201.803h3.134v3.096h-3.134V201.803z"/>
	<path d="M82.181,201.067v-0.039c0-2.457,1.703-3.463,3.812-3.889l0.213-1.18h1.974l0.445,3.134l-0.097,0.097
		c-2.438,0.097-3.386,0.735-3.386,1.76v0.039c0,0.871,0.658,1.374,1.78,1.374c1.083,0,2.012-0.445,2.902-1.335l1.78,1.954
		c-1.123,1.238-2.632,2.09-4.741,2.09C84.077,205.073,82.181,203.641,82.181,201.067z M85.683,191.354h3.135v3.096h-3.135V191.354z"
		/>
	<path d="M95.357,197.159l0.097-0.097c2.438-0.097,3.386-0.735,3.386-1.761v-0.039c0-0.871-0.658-1.374-1.78-1.374
		c-1.083,0-2.012,0.445-2.902,1.335l-1.78-1.955c1.122-1.238,2.631-2.089,4.74-2.089c2.786,0,4.682,1.432,4.682,4.005v0.039
		c0,2.457-1.703,3.463-3.812,3.889l-0.213,1.18h-1.974L95.357,197.159z M95.164,201.803h3.134v3.096h-3.134V201.803z"/>
	<path d="M103.387,194.702v-0.039c0-1.915,1.335-3.463,3.309-3.463c1.954,0,3.27,1.528,3.27,3.424v0.039
		c0,1.896-1.335,3.463-3.309,3.463C104.703,198.126,103.387,196.598,103.387,194.702z M114.628,191.354h2.303l-9.887,13.544h-2.302
		L114.628,191.354z M107.934,194.702v-0.039c0-0.909-0.503-1.703-1.277-1.703c-0.813,0-1.238,0.774-1.238,1.664v0.039
		c0,0.91,0.503,1.703,1.277,1.703C107.508,196.366,107.934,195.573,107.934,194.702z M111.707,201.628v-0.039
		c0-1.916,1.335-3.463,3.309-3.463c1.954,0,3.27,1.529,3.27,3.425v0.039c0,1.896-1.335,3.463-3.309,3.463
		C113.022,205.053,111.707,203.525,111.707,201.628z M116.254,201.628v-0.039c0-0.909-0.503-1.703-1.277-1.703
		c-0.813,0-1.238,0.774-1.238,1.664v0.039c0,0.909,0.503,1.703,1.277,1.703C115.828,203.292,116.254,202.499,116.254,201.628z"/>
	<path d="M124.575,204.84c-1.664-0.213-3.289-0.871-4.566-1.838l1.509-2.206c1.045,0.793,2.012,1.335,3.154,1.567v-3.076
		c-2.786-0.755-4.16-1.819-4.16-4.102v-0.039c0-2.147,1.625-3.541,4.063-3.792v-1.122h2.012v1.161
		c1.374,0.193,2.554,0.696,3.599,1.432l-1.296,2.264c-0.774-0.522-1.586-0.929-2.399-1.142v2.922
		c2.941,0.793,4.198,1.993,4.198,4.16v0.039c0,2.148-1.645,3.541-4.102,3.812v1.916h-2.012V204.84z M124.671,193.773
		c-0.929,0.116-1.335,0.58-1.335,1.199v0.039c0,0.6,0.271,0.986,1.335,1.374V193.773z M127.864,201.222v-0.039
		c0-0.658-0.329-1.045-1.374-1.432v2.708C127.399,202.325,127.864,201.919,127.864,201.222z"/>
	<path d="M133.263,194.238h9.171v2.67h-9.171V194.238z M133.263,199.268h9.171v2.67h-9.171V199.268z"/>
	<path d="M144.64,196.366c1.335-0.135,1.993-0.813,1.896-1.916h-1.2v-3.096h3.134v2.612c0,2.554-1.277,3.579-3.58,3.618
		L144.64,196.366z M149.555,196.366c1.335-0.135,1.993-0.813,1.896-1.916h-1.199v-3.096h3.134v2.612c0,2.554-1.277,3.579-3.58,3.618
		L149.555,196.366z"/>
	<path d="M158.011,203.795c0-0.29,0.058-1.006,0.058-1.335c0-1.509-0.619-1.993-2.128-1.993h-0.503v-2.245h0.503
		c1.509,0,2.128-0.483,2.128-1.993c0-0.329-0.058-1.045-0.058-1.335c0-1.974,0.987-3.212,4.527-3.831l0.522,1.954
		c-2.051,0.581-2.36,1.122-2.36,2.303c0,0.387,0.058,1.025,0.058,1.432c0,1.412-0.716,2.167-2.012,2.593
		c1.296,0.425,2.012,1.18,2.012,2.592c0,0.407-0.058,1.045-0.058,1.432c0,1.18,0.31,1.722,2.36,2.302l-0.522,1.954
		C158.998,207.007,158.011,205.769,158.011,203.795z"/>
	<path d="M164.879,205.672c2.051-0.581,2.361-1.122,2.361-2.302c0-0.387-0.058-1.025-0.058-1.432c0-1.412,0.716-2.167,2.012-2.592
		c-1.296-0.426-2.012-1.181-2.012-2.593c0-0.406,0.058-1.045,0.058-1.432c0-1.181-0.31-1.722-2.361-2.303l0.522-1.954
		c3.541,0.619,4.528,1.857,4.528,3.831c0,0.29-0.058,1.006-0.058,1.335c0,1.509,0.619,1.993,2.128,1.993h0.503v2.245H172
		c-1.509,0-2.128,0.483-2.128,1.993c0,0.329,0.058,1.045,0.058,1.335c0,1.974-0.987,3.212-4.528,3.831L164.879,205.672z"/>
	<path d="M174.593,199.346c0-3.715,1.799-6.346,5.359-8.281l1.296,1.954c-2.612,1.819-3.734,3.599-3.734,6.327
		c0,2.728,1.122,4.508,3.734,6.327l-1.296,1.954C176.393,205.692,174.593,203.061,174.593,199.346z"/>
	<path d="M182.875,205.672c2.612-1.819,3.734-3.599,3.734-6.327c0-2.729-1.122-4.508-3.734-6.327l1.296-1.954
		c3.56,1.935,5.359,4.566,5.359,8.281s-1.799,6.346-5.359,8.281L182.875,205.672z"/>
	<path d="M192.278,191.354h6.25v2.303h-3.425v11.454h3.425v2.302h-6.25V191.354z"/>
	<path d="M200.812,205.111h3.425v-11.454h-3.425v-2.303h6.25v16.059h-6.25V205.111z"/>
</g>
</svg>
